<svg width="25" height="38" viewBox="0 0 25 38" fill="none" xmlns="http://www.w3.org/2000/svg">
<path d="M12.8993 16.1116C12.7289 16.0945 12.5245 16.0945 12.3371 16.1116C8.28244 15.9753 5.0625 12.6531 5.0625 8.5643C5.0625 4.39031 8.43577 1 12.6267 1C16.8007 1 20.191 4.39031 20.191 8.5643C20.174 12.6531 16.954 15.9753 12.8993 16.1116Z" stroke="#F57921" stroke-width="2" stroke-linecap="round" stroke-linejoin="round"/>
<path opacity="0.6" d="M12.6276 34.7515C9.52691 34.7515 6.44323 33.9678 4.09217 32.4005C-0.0307218 29.6405 -0.0307218 25.1428 4.09217 22.3999C8.77726 19.2651 16.4609 19.2651 21.146 22.3999" stroke="#F57921" stroke-width="2" stroke-linecap="round" stroke-linejoin="round"/>
<path d="M17.875 33.9097C17.875 35.0009 18.7187 35.8784 19.7537 35.8784H21.8687C22.7687 35.8784 23.5 35.1134 23.5 34.1572C23.5 33.1334 23.05 32.7622 22.3862 32.5259L19 31.3447C18.3362 31.1084 17.8863 30.7484 17.8863 29.7134C17.8863 28.7684 18.6175 27.9922 19.5175 27.9922H21.6325C22.6675 27.9922 23.5112 28.8697 23.5112 29.9609" stroke="white" stroke-width="1.7" stroke-linecap="round" stroke-linejoin="round"/>
<path d="M20.6836 26.875V37" stroke="white" stroke-width="1.7" stroke-linecap="round" stroke-linejoin="round"/>
</svg>
