<svg width="35" height="32" viewBox="0 0 35 32" fill="none" xmlns="http://www.w3.org/2000/svg">
<path d="M4.94922 11.4043H9.00545H17.1179H25.2304H29.2866" stroke="#F57921" stroke-width="1.74722" stroke-miterlimit="10" stroke-linecap="round" stroke-linejoin="round"/>
<path d="M16.386 28.4392H8.09512C2.33528 28.4392 0.875 27.0114 0.875 21.3165V7.97956C0.875 2.82004 2.07569 1.1651 6.60245 0.905497C7.05674 0.889272 7.5597 0.873047 8.09512 0.873047H26.1209C31.8808 0.873047 33.341 2.30084 33.341 7.99579V15.151" stroke="#F57921" stroke-width="1.74722" stroke-linecap="round" stroke-linejoin="round"/>
<path opacity="0.4" d="M7.37891 21.1387H13.8689" stroke="#F57921" stroke-width="1.74722" stroke-miterlimit="10" stroke-linecap="round" stroke-linejoin="round"/>
<path d="M33.3432 24.3825C33.3432 25.5994 33.0025 26.7514 32.4022 27.7249C31.2827 29.607 29.2221 30.8725 26.8533 30.8725C24.4844 30.8725 22.4238 29.607 21.3043 27.7249C20.704 26.7514 20.3633 25.5994 20.3633 24.3825C20.3633 20.7968 23.2675 17.8926 26.8533 17.8926C30.439 17.8926 33.3432 20.7968 33.3432 24.3825Z" stroke="white" stroke-width="1.74722" stroke-miterlimit="10" stroke-linecap="round" stroke-linejoin="round"/>
<path d="M24.3203 24.383L25.9264 25.9893L29.3823 22.793" stroke="white" stroke-width="1.74722" stroke-linecap="round" stroke-linejoin="round"/>
</svg>
