<svg width="37" height="30" viewBox="0 0 37 30" fill="none" xmlns="http://www.w3.org/2000/svg">
<path d="M6.5625 18.0571C6.5625 19.7816 7.89583 21.1682 9.53139 21.1682H12.8736C14.2958 21.1682 15.4514 19.9593 15.4514 18.4482C15.4514 16.8304 14.7403 16.2438 13.6914 15.8704L8.34028 14.0038C7.29139 13.6304 6.5803 13.0616 6.5803 11.426C6.5803 9.93272 7.73583 8.70605 9.15806 8.70605H12.5003C14.1358 8.70605 15.4692 10.0927 15.4692 11.8171" stroke="#F57921" stroke-width="1.88" stroke-linecap="round" stroke-linejoin="round"/>
<path d="M10.9922 6.94043V22.9404" stroke="#F57921" stroke-width="1.88" stroke-linecap="round" stroke-linejoin="round"/>
<path opacity="0.5" d="M0.9375 14.9404C0.9375 8.34076 0.9375 5.04094 2.98775 2.99068C5.03801 0.940429 8.33783 0.94043 14.9375 0.94043H21.9375C28.5371 0.94043 31.8371 0.940429 33.8872 2.99068C35.9375 5.04094 35.9375 8.34076 35.9375 14.9404C35.9375 21.54 35.9375 24.84 33.8872 26.8901C31.8371 28.9404 28.5371 28.9404 21.9375 28.9404H14.9375C8.33783 28.9404 5.03801 28.9404 2.98775 26.8901C0.9375 24.84 0.9375 21.54 0.9375 14.9404Z" stroke="#F57921" stroke-width="1.88"/>
<path d="M30.6875 14.9404L20.6875 14.9404" stroke="white" stroke-width="1.88" stroke-linecap="round"/>
<path d="M30.6875 9.94043H20.6875" stroke="white" stroke-width="1.88" stroke-linecap="round"/>
<path opacity="0.9" d="M30.6875 19.9404L20.6875 19.9404" stroke="white" stroke-width="1.88" stroke-linecap="round"/>
</svg>
