<svg width="51" height="51" viewBox="0 0 51 51" fill="none" xmlns="http://www.w3.org/2000/svg">
<path opacity="0.6" d="M25.2461 13.1973C25.9364 13.1973 26.4961 13.7569 26.4961 14.4473V15.5742H27.2656C30.2158 15.5742 32.5244 18.0591 32.5244 21.0244C32.5243 21.7145 31.9645 22.2742 31.2744 22.2744C30.5841 22.2744 30.0246 21.7146 30.0244 21.0244C30.0244 19.3339 28.7315 18.0742 27.2656 18.0742H26.4961V24.3418L29.2861 25.3154L29.293 25.3184C30.0966 25.6044 30.9494 26.0318 31.5781 26.8369C32.2179 27.6563 32.5 28.7024 32.5 29.9766C32.4998 32.6458 30.4391 34.8984 27.7695 34.8984H26.4961V36.0469C26.4961 36.7372 25.9364 37.2969 25.2461 37.2969C24.5557 37.2969 23.9961 36.7372 23.9961 36.0469V34.8984H23.2578C20.3078 34.8983 18 32.4135 18 29.4482C18 28.7579 18.5596 28.1982 19.25 28.1982C19.9404 28.1982 20.5 28.7579 20.5 29.4482C20.5 31.1387 21.7921 32.3983 23.2578 32.3984H23.9961V26.1172L21.2383 25.1562L21.2305 25.1533C20.4349 24.8701 19.5794 24.451 18.9482 23.6475C18.3049 22.8282 18.0244 21.7791 18.0244 20.4961C18.0244 17.8562 20.0791 15.5743 22.7539 15.5742H23.9961V14.4473C23.9961 13.7569 24.5557 13.1973 25.2461 13.1973ZM26.4961 32.3984H27.7695C28.9397 32.3984 29.9998 31.3869 30 29.9766C30 29.0668 29.8016 28.6237 29.6074 28.375C29.4029 28.1133 29.0695 27.8928 28.4619 27.6758L26.4961 26.9893V32.3984ZM22.7539 18.0742C21.5888 18.0743 20.5244 19.1042 20.5244 20.4961C20.5244 21.421 20.7234 21.8607 20.9141 22.1035C21.1159 22.3604 21.4464 22.5761 22.0615 22.7959L23.9961 23.4697V18.0742H22.7539Z" fill="#F57921"/>
<path d="M49.25 25.25C49.25 38.498 38.498 49.25 25.25 49.25C12.002 49.25 1.25 38.498 1.25 25.25C1.25 12.002 12.002 1.25 25.25 1.25" stroke="#F57921" stroke-width="2.5" stroke-linecap="round" stroke-linejoin="round"/>
<path d="M37.25 3.65234V13.2523H46.85" stroke="white" stroke-width="2.5" stroke-linecap="round" stroke-linejoin="round"/>
<path d="M49.25 1.25L37.25 13.25" stroke="white" stroke-width="2.5" stroke-linecap="round" stroke-linejoin="round"/>
</svg>
