<svg width="128" height="128" viewBox="0 0 128 128" fill="none" xmlns="http://www.w3.org/2000/svg">
<path d="M126.988 0.988281L0.988281 126.988" stroke="#122747" stroke-width="1.97826" stroke-linecap="round" stroke-linejoin="round"/>
<path d="M0.988281 0.988281L126.988 126.988" stroke="#122747" stroke-width="1.97826" stroke-linecap="round" stroke-linejoin="round"/>
<path d="M107.268 25.5685C107.268 22.2853 104.598 19.6152 101.314 19.6152H23.922C20.6388 19.6152 17.9688 22.2853 17.9688 25.5685C17.9688 28.3353 19.8738 30.6451 22.4337 31.3104V103.577L26.8986 99.1121L35.8285 108.042L44.7584 99.1121L53.6883 108.042L62.6182 99.1121L71.5481 108.042L80.478 99.1121L89.4079 108.042L98.3378 99.1121L102.803 103.577V31.3104C105.363 30.6451 107.268 28.3353 107.268 25.5685ZM99.8261 96.3915L98.3378 94.9032L89.4079 103.833L80.478 94.9032L71.5481 103.833L62.6182 94.9032L53.6883 103.833L44.7584 94.9032L35.8285 103.833L26.8986 94.9032L25.4103 96.3915V31.5218V27.0568H99.8261V31.5218V96.3915ZM102.803 28.1448V24.0802H22.4337V28.1448C21.5452 27.6313 20.9454 26.6684 20.9454 25.5685C20.9454 23.9269 22.2804 22.5919 23.922 22.5919H101.314C102.956 22.5919 104.291 23.9269 104.291 25.5685C104.291 26.6684 103.691 27.6313 102.803 28.1448Z" fill="#122747"/>
<path d="M83.4615 79.1484H61.1368C60.3152 79.1484 59.6484 79.8137 59.6484 80.6368C59.6484 81.4598 60.3152 82.1251 61.1368 82.1251H83.4615C84.283 82.1251 84.9498 81.4598 84.9498 80.6368C84.9498 79.8137 84.283 79.1484 83.4615 79.1484Z" fill="#122747"/>
<path d="M89.8379 79.579C89.57 79.8603 89.4062 80.2324 89.4062 80.6357C89.4062 81.0227 89.57 81.4096 89.8379 81.6924C90.1206 81.9603 90.5076 82.124 90.8946 82.124C91.2815 82.124 91.6685 81.9603 91.9513 81.6924C92.2192 81.4096 92.3829 81.0227 92.3829 80.6357C92.3829 80.2324 92.2192 79.8603 91.9513 79.579C91.3857 79.0283 90.4034 79.0283 89.8379 79.579Z" fill="#122747"/>
<path d="M90.8912 58.3105H68.5664C67.7449 58.3105 67.0781 58.9758 67.0781 59.7989C67.0781 60.6219 67.7449 61.2872 68.5664 61.2872H90.8912C91.7127 61.2872 92.3795 60.6219 92.3795 59.7989C92.3795 58.9758 91.7127 58.3105 90.8912 58.3105Z" fill="#122747"/>
<path d="M90.8949 68.7305H76.0118C75.1902 68.7305 74.5234 69.3957 74.5234 70.2188C74.5234 71.0418 75.1902 71.7071 76.0118 71.7071H90.8949C91.7165 71.7071 92.3832 71.0418 92.3832 70.2188C92.3832 69.3957 91.7165 68.7305 90.8949 68.7305Z" fill="#122747"/>
<path d="M59.6484 70.2188C59.6484 71.0418 60.3152 71.7071 61.1368 71.7071H64.1134C64.9349 71.7071 65.6017 71.0418 65.6017 70.2188C65.6017 69.3957 64.9349 68.7305 64.1134 68.7305H61.1368C60.3152 68.7305 59.6484 69.3957 59.6484 70.2188Z" fill="#122747"/>
<path d="M84.9498 49.3809C84.9498 48.5579 84.283 47.8926 83.4615 47.8926H61.1368C60.3152 47.8926 59.6484 48.5579 59.6484 49.3809C59.6484 50.2039 60.3152 50.8692 61.1368 50.8692H83.4615C84.283 50.8692 84.9498 50.2039 84.9498 49.3809Z" fill="#122747"/>
<path d="M89.8379 48.3251C89.57 48.6064 89.4062 48.9785 89.4062 49.3818C89.4062 49.7688 89.57 50.1557 89.8379 50.4385C90.1206 50.7064 90.5076 50.8701 90.8946 50.8701C91.2964 50.8701 91.6685 50.7064 91.9513 50.4385C92.2192 50.1557 92.3829 49.7688 92.3829 49.3818C92.3829 48.9949 92.2192 48.6064 91.9513 48.3251C91.4006 47.7744 90.3885 47.7744 89.8379 48.3251Z" fill="#122747"/>
<path d="M63.6739 60.8565C63.9418 60.5737 64.1055 60.2016 64.1055 59.7998C64.1055 59.3965 63.9418 59.0244 63.6739 58.7431C63.1232 58.1924 62.1261 58.1924 61.5605 58.7431C61.2926 59.0244 61.1289 59.3965 61.1289 59.7998C61.1289 60.2016 61.2926 60.5737 61.5605 60.8565C61.8433 61.1244 62.2303 61.2881 62.6172 61.2881C63.0042 61.2881 63.3911 61.1244 63.6739 60.8565Z" fill="#122747"/>
<path d="M71.1153 71.2745C71.3832 70.9917 71.5469 70.6196 71.5469 70.2178C71.5469 69.8144 71.3832 69.429 71.1153 69.1611C70.5647 68.6104 69.5675 68.6104 69.0019 69.1611C68.734 69.4423 68.5703 69.8308 68.5703 70.2178C68.5703 70.6047 68.734 70.9917 69.0019 71.2745C69.2847 71.5424 69.6717 71.7061 70.0586 71.7061C70.4456 71.7061 70.8326 71.5424 71.1153 71.2745Z" fill="#122747"/>
<path d="M43.2776 51.0195V49.3809C43.2776 48.5579 42.6108 47.8926 41.7892 47.8926C40.9677 47.8926 40.3009 48.5579 40.3009 49.3809V51.024C38.6772 51.3544 37.1978 52.2161 36.1068 53.5065C35.1975 54.5811 34.7763 55.9563 34.9251 57.3806C35.0769 58.8377 35.827 60.189 36.9835 61.088L40.3009 63.6687V71.7622C38.573 71.146 37.3243 69.5089 37.3243 67.5711C37.3243 66.7481 36.6575 66.0828 35.836 66.0828C35.0144 66.0828 34.3477 66.7481 34.3477 67.5711C34.3477 71.1639 36.909 74.1703 40.3009 74.8624V76.1691C40.3009 76.9921 40.9677 77.6574 41.7892 77.6574C42.6108 77.6574 43.2776 76.9921 43.2776 76.1691V74.8564C44.9013 74.526 46.3807 73.6643 47.4731 72.3739C48.3825 71.2963 48.8022 69.9211 48.6533 68.4968C48.5001 67.0413 47.7514 65.6913 46.595 64.7939L43.2776 62.2146V54.1212C45.0055 54.7373 46.2542 56.3745 46.2542 58.3123C46.2542 59.1353 46.9209 59.8006 47.7425 59.8006C48.564 59.8006 49.2308 59.1353 49.2308 58.3123C49.2308 54.718 46.6694 51.7116 43.2776 51.0195ZM44.7674 67.1439C45.2868 67.5473 45.6246 68.156 45.6931 68.8079C45.7571 69.4181 45.5815 70.003 45.2005 70.4525C44.6825 71.0642 44.0128 71.4928 43.2776 71.7547V65.9831L44.7674 67.1439ZM38.8111 58.7394C38.2902 58.3346 37.9538 57.7259 37.8854 57.0725C37.8229 56.4638 37.997 55.8804 38.378 55.4294C38.8959 54.8177 39.5657 54.3891 40.3009 54.1271V59.8973L38.8111 58.7394Z" fill="#122747"/>
<path d="M77.5039 37.4747C78.3259 37.4747 78.9923 36.8083 78.9923 35.9864C78.9923 35.1644 78.3259 34.498 77.5039 34.498C76.682 34.498 76.0156 35.1644 76.0156 35.9864C76.0156 36.8083 76.682 37.4747 77.5039 37.4747Z" fill="#122747"/>
<path d="M71.543 37.4747C72.365 37.4747 73.0313 36.8083 73.0313 35.9864C73.0313 35.1644 72.365 34.498 71.543 34.498C70.721 34.498 70.0547 35.1644 70.0547 35.9864C70.0547 36.8083 70.721 37.4747 71.543 37.4747Z" fill="#122747"/>
<path d="M83.4532 37.4747C84.2751 37.4747 84.9415 36.8083 84.9415 35.9864C84.9415 35.1644 84.2751 34.498 83.4532 34.498C82.6312 34.498 81.9648 35.1644 81.9648 35.9864C81.9648 36.8083 82.6312 37.4747 83.4532 37.4747Z" fill="#122747"/>
<path d="M65.5938 37.4747C66.4158 37.4747 67.0821 36.8083 67.0821 35.9864C67.0821 35.1644 66.4158 34.498 65.5938 34.498C64.7718 34.498 64.1055 35.1644 64.1055 35.9864C64.1055 36.8083 64.7718 37.4747 65.5938 37.4747Z" fill="#122747"/>
<path d="M89.4141 37.4747C90.2361 37.4747 90.9024 36.8083 90.9024 35.9864C90.9024 35.1644 90.2361 34.498 89.4141 34.498C88.5921 34.498 87.9258 35.1644 87.9258 35.9864C87.9258 36.8083 88.5921 37.4747 89.4141 37.4747Z" fill="#122747"/>
<path d="M47.7344 37.4747C48.5564 37.4747 49.2227 36.8083 49.2227 35.9864C49.2227 35.1644 48.5564 34.498 47.7344 34.498C46.9124 34.498 46.2461 35.1644 46.2461 35.9864C46.2461 36.8083 46.9124 37.4747 47.7344 37.4747Z" fill="#122747"/>
<path d="M53.6836 37.4747C54.5056 37.4747 55.1719 36.8083 55.1719 35.9864C55.1719 35.1644 54.5056 34.498 53.6836 34.498C52.8617 34.498 52.1953 35.1644 52.1953 35.9864C52.1953 36.8083 52.8617 37.4747 53.6836 37.4747Z" fill="#122747"/>
<path d="M59.6446 37.4747C60.4665 37.4747 61.1329 36.8083 61.1329 35.9864C61.1329 35.1644 60.4665 34.498 59.6446 34.498C58.8226 34.498 58.1562 35.1644 58.1562 35.9864C58.1562 36.8083 58.8226 37.4747 59.6446 37.4747Z" fill="#122747"/>
<path d="M95.3633 37.4747C96.1853 37.4747 96.8516 36.8083 96.8516 35.9864C96.8516 35.1644 96.1853 34.498 95.3633 34.498C94.5413 34.498 93.875 35.1644 93.875 35.9864C93.875 36.8083 94.5413 37.4747 95.3633 37.4747Z" fill="#122747"/>
<path d="M41.7852 37.4747C42.6072 37.4747 43.2735 36.8083 43.2735 35.9864C43.2735 35.1644 42.6072 34.498 41.7852 34.498C40.9632 34.498 40.2969 35.1644 40.2969 35.9864C40.2969 36.8083 40.9632 37.4747 41.7852 37.4747Z" fill="#122747"/>
<path d="M35.836 37.4747C36.6579 37.4747 37.3243 36.8083 37.3243 35.9864C37.3243 35.1644 36.6579 34.498 35.836 34.498C35.014 34.498 34.3477 35.1644 34.3477 35.9864C34.3477 36.8083 35.014 37.4747 35.836 37.4747Z" fill="#122747"/>
<path d="M29.875 37.4747C30.697 37.4747 31.3634 36.8083 31.3634 35.9864C31.3634 35.1644 30.697 34.498 29.875 34.498C29.0531 34.498 28.3867 35.1644 28.3867 35.9864C28.3867 36.8083 29.0531 37.4747 29.875 37.4747Z" fill="#122747"/>
</svg>
