<svg width="23" height="23" viewBox="0 0 23 23" fill="none" xmlns="http://www.w3.org/2000/svg">
<path d="M1.50624 15.1125L3.50984 13.9558C3.61837 13.8933 3.74574 13.8714 3.8689 13.8945L7.81113 14.6323C8.1351 14.6929 8.43417 14.4436 8.4327 14.114L8.41735 10.6599C8.41693 10.566 8.44168 10.4737 8.48902 10.3927L10.4784 6.98668C10.582 6.80942 10.5727 6.58806 10.4547 6.42009L7.10502 1.65212M18.6354 3.78716C12.8604 6.5602 16.0102 10.2352 17.0604 10.7602C19.0313 11.7455 21.7721 11.8102 21.7721 11.8102C21.7807 11.6363 21.7852 11.4612 21.7852 11.2852C21.7852 5.48616 17.0841 0.785156 11.2852 0.785156C5.48616 0.785156 0.785156 5.48616 0.785156 11.2852C0.785156 17.0841 5.48616 21.7852 11.2852 21.7852C11.4612 21.7852 11.6363 21.7808 11.8102 21.7722" stroke="white" stroke-width="1.57" stroke-linecap="round" stroke-linejoin="round"/>
<path opacity="0.37" d="M16.2822 21.7213L12.957 12.9551L21.7233 16.2802L17.836 17.834L16.2822 21.7213Z" stroke="white" stroke-width="1.57" stroke-linecap="round" stroke-linejoin="round"/>
</svg>
