<svg width="23" height="23" viewBox="0 0 23 23" fill="none" xmlns="http://www.w3.org/2000/svg">
<path d="M0.875 15.577C0.875 12.6073 0.875 11.1225 1.79756 10.1999C2.72011 9.27734 4.20494 9.27734 7.17461 9.27734H15.5741C18.5437 9.27734 20.0285 9.27734 20.9511 10.1999C21.8737 11.1225 21.8737 12.6073 21.8737 15.577C21.8737 18.5466 21.8737 20.0314 20.9511 20.954C20.0285 21.8766 18.5437 21.8766 15.5741 21.8766H7.17461C4.20494 21.8766 2.72011 21.8766 1.79756 20.954C0.875 20.0314 0.875 18.5466 0.875 15.577Z" stroke="white" stroke-width="1.7535"/>
<path opacity="0.5" d="M11.3711 13.4766V17.6763" stroke="white" stroke-width="1.7535" stroke-linecap="round"/>
<path opacity="0.5" d="M5.07031 9.27643V7.17656C5.07031 3.69738 7.89074 0.876953 11.3699 0.876953C14.8491 0.876953 17.6695 3.69738 17.6695 7.17656V9.27643" stroke="white" stroke-width="1.7535" stroke-linecap="round"/>
</svg>
