<svg width="247" height="85" viewBox="0 0 247 85" fill="none" xmlns="http://www.w3.org/2000/svg">
<path d="M173.07 17.1377V37.6222H179.544C181.338 37.6222 183.717 37.5445 185.784 35.9068C187.187 34.8146 188.435 32.7867 188.435 30.2915C188.435 27.7954 187.109 24.6369 183.483 23.7398C185.784 22.1798 186.056 19.918 186.056 18.6312C186.056 15.4723 184.535 13.8734 183.717 13.2494C181.806 11.7286 179.193 11.6117 177.75 11.6117H173.2C174.117 12.2615 174.865 13.1513 174.865 14.3024C174.865 15.5269 174.051 16.4656 173.07 17.1381V17.1377ZM175.956 14.3412H178.218C179.037 14.3412 183.248 14.4189 183.248 18.7089C183.248 22.7257 179.661 23.0373 178.14 23.0373H175.956V14.3412ZM175.956 25.6114H178.92C180.987 25.6114 182.352 25.8453 183.327 26.3912C184.341 26.9371 185.55 28.1463 185.55 30.2126C185.55 31.7726 184.848 33.0595 183.833 33.8004C182.586 34.7753 180.948 34.8923 179.271 34.8923H175.957V25.6114H175.956ZM205.437 23.7394C204.697 22.7645 203.02 21.0487 199.9 21.0487C195.767 21.0487 192.023 23.9341 192.023 29.5105C192.023 35.2039 195.806 38.0896 199.9 38.0896C202.746 38.0896 204.501 36.5689 205.437 35.3597V37.6218H208.245V21.438H205.437V23.739V23.7394ZM200.212 23.544C202.708 23.544 205.594 25.3771 205.594 29.5497C205.594 32.7479 203.644 35.594 200.212 35.594C196.858 35.594 194.908 32.9818 194.908 29.5109C194.908 25.5722 197.443 23.5444 200.212 23.5444V23.544ZM213.549 37.6218H216.356V29.1596C216.356 27.9897 216.435 26.0792 217.526 24.7924C218.345 23.8175 219.398 23.5444 220.373 23.5444C221.621 23.5444 222.479 24.0126 223.025 24.7143C223.688 25.5722 223.766 26.7032 223.766 27.6781V37.6222H226.574V27.6004C226.574 25.8061 226.457 24.4804 225.638 23.2716C224.663 21.8285 222.908 21.0491 220.998 21.0491C218.307 21.0491 216.864 22.6476 216.356 23.3104V21.4388H213.549V37.6226V37.6218ZM231.877 9.19374V37.6218H234.685V30.9536L235.386 30.2515L241.86 37.6218H245.526L237.336 28.3794L244.278 21.438H240.612L234.684 27.4438V9.19336H231.877L231.877 9.19374Z" fill="white"/>
<path d="M169.082 38.0357V20.1191H162.445V38.0357H169.082Z" fill="white"/>
<path d="M158.503 38.0364V25.8364C158.503 22.8821 157.39 19.7363 153.937 19.7363C151.52 19.7363 150.101 21.4629 149.218 23.5346C149.295 22.3835 149.333 21.271 149.371 20.1203H142.734V38.0364H149.371V29.0206C149.371 28.0615 149.487 26.3734 150.791 26.3734C151.865 26.3734 151.827 27.793 151.827 28.5601V38.0364H158.503Z" fill="white"/>
<path d="M138.793 38.0357V20.1191H132.156V38.0357H138.793Z" fill="white"/>
<path d="M146.065 14.2993C146.065 12.1895 142.06 10.4629 137.272 10.4629C132.485 10.4629 128.48 12.1895 128.48 14.2993C128.48 16.4094 132.398 18.2126 137.272 18.2126C142.147 18.2126 146.065 16.4479 146.065 14.2993Z" fill="white"/>
<path d="M129.485 25.4902V20.1192H127.298V14.8633H120.661V20.1192H118.742V25.4902H120.661V38.0358H127.298V25.4902H129.485Z" fill="white"/>
<path d="M109.045 28.2916C109.045 29.4808 109.237 32.9339 107.472 32.9339C106.053 32.9339 105.976 30.7088 105.976 29.7116C105.976 28.522 105.937 25.2227 107.664 25.2227C109.007 25.2227 109.045 27.3329 109.045 28.292L109.045 28.2916ZM115.798 38.0364V20.1203H109.007C109.122 21.0794 109.122 22 109.199 22.9591C108.355 21.1559 107.05 19.7363 104.902 19.7363C100.336 19.7363 99.3008 25.4143 99.3008 28.9822C99.3008 32.435 100.221 38.42 104.749 38.42C107.05 38.42 108.393 36.9238 109.353 35.0052C109.276 36.0028 109.199 37.0385 109.123 38.036H115.798L115.798 38.0364Z" fill="white"/>
<path d="M98.7777 20.1191H92.1406C91.3731 23.7255 90.6444 27.2933 90.1074 30.9381C89.8004 27.2933 89.1483 23.7255 88.5343 20.1191H82.8563C82.0507 23.687 81.1686 27.2933 80.8231 30.9381C80.5546 27.2933 79.7874 23.7255 79.1353 20.1191H72.6133L77.0637 38.0353H83.5857L85.6189 27.2929L87 38.0353H93.5606L98.7785 20.1191H98.7777Z" fill="white"/>
<path d="M70.7814 21.1944C69.0933 20.3503 67.3671 19.7363 65.4489 19.7363C61.8426 19.7363 58.0828 21.885 58.0828 25.8748C58.0828 31.1693 64.5279 30.6707 64.5279 32.5119C64.5279 33.2025 63.7992 33.471 63.2237 33.471C61.9961 33.471 60.6915 32.4354 59.8859 31.5913L57.4688 36.5403C59.6174 37.6913 61.3436 38.4204 63.8373 38.4204C67.5971 38.4204 71.0499 36.1952 71.0499 32.1284C71.0499 26.7189 64.7195 27.486 64.7195 25.3378C64.7195 24.7622 65.2565 24.4937 65.7555 24.4937C66.7915 24.4937 67.7887 25.3762 68.4797 26.0668L70.7814 21.1944Z" fill="white"/>
<path d="M54.5602 38.0369V31.8984H48.6517V27.9851H53.9465V22.1921H48.6517V18.4707H54.5602V12.4473H41.7461V38.0369H54.5602Z" fill="white"/>
<path d="M173.947 14.2993C173.947 12.1895 169.943 10.4629 165.155 10.4629C160.368 10.4629 156.363 12.1895 156.363 14.2993C156.363 16.4094 160.28 18.2126 165.155 18.2126C170.03 18.2126 173.947 16.4479 173.947 14.2993Z" fill="white"/>
<path d="M246.219 40.5273H41.7383V42.1274H246.219V40.5273Z" fill="white"/>
<path fill-rule="evenodd" clip-rule="evenodd" d="M237.558 56.8027H198.277V58.9706C213.268 59.9482 226.906 66.0124 237.558 75.4941V56.8027Z" fill="#F57921"/>
<path d="M86.162 50.7331H88.1941C88.1451 51.1983 87.9615 51.6757 87.5085 52.1164C86.9821 52.6306 86.3946 52.8387 85.6845 52.8387C84.9011 52.8387 84.2033 52.6184 83.6402 52.0185C83.1016 51.4432 82.7955 50.623 82.7955 49.8028C82.7955 48.9214 83.126 48.0522 83.6647 47.5136C84.0686 47.1096 84.7542 46.6689 85.8192 46.6689C86.3211 46.6689 86.8108 46.7546 87.2637 47.0239C87.6554 47.2443 88.0227 47.6115 88.2675 47.9543L89.2591 47.2565C89.0265 46.8893 88.6103 46.4119 87.937 46.0324C87.3004 45.6774 86.5415 45.5182 85.807 45.5182C84.5461 45.5182 83.4321 46.0324 82.7343 46.7424C82.061 47.4157 81.5469 48.5174 81.5469 49.7905C81.5469 50.9657 81.9631 52.0552 82.7588 52.8754C83.5055 53.6466 84.3502 53.9894 85.5376 53.9894C86.468 53.9894 87.4718 53.7691 88.3165 52.9489C89.1122 52.1777 89.5284 51.0392 89.5284 49.6436V49.5824H86.162V50.7331Z" fill="white"/>
<path d="M90.8756 53.8303H92.0752V51.1616C92.0752 50.8188 92.0752 50.3292 92.4058 49.9742C92.6383 49.7293 92.8954 49.6926 93.1525 49.6926C93.2749 49.6926 93.4953 49.7049 93.7646 49.8762L94.2542 48.7867C93.9237 48.5909 93.6054 48.5419 93.3116 48.5419C93.0423 48.5419 92.8097 48.5786 92.5771 48.7133C92.4058 48.8112 92.2099 48.9826 92.0752 49.1417V48.6766H90.8756V53.8303Z" fill="white"/>
<path d="M97.1861 48.5419C95.6314 48.5419 94.4317 49.6681 94.4317 51.2595C94.4317 52.8387 95.6314 53.9894 97.1861 53.9894C98.7408 53.9894 99.9405 52.8387 99.9405 51.2595C99.9405 49.6681 98.7408 48.5419 97.1861 48.5419ZM97.1861 52.9122C96.2435 52.9122 95.6559 52.2633 95.6559 51.2718C95.6559 50.0966 96.4271 49.6192 97.1861 49.6192C97.9451 49.6192 98.7163 50.0966 98.7163 51.2718C98.7163 52.2633 98.1287 52.9122 97.1861 52.9122Z" fill="white"/>
<path d="M100.507 48.6766L103.188 54.1975L104.632 50.9045L106.077 54.1975L108.758 48.6766H107.411L106.077 51.6268L104.632 48.2359L103.188 51.6268L101.853 48.6766H100.507Z" fill="white"/>
<path d="M111.732 45.6651L115.208 54.3567L117.363 48.5664L119.493 54.3567L123.141 45.6651H121.794L119.566 51.1249L117.436 45.2734L115.233 51.1249L113.078 45.6651H111.732Z" fill="white"/>
<path d="M123.954 48.6766V53.8303H125.154V48.6766H123.954ZM123.783 46.5465C123.783 46.9872 124.113 47.3177 124.554 47.3177C124.995 47.3177 125.325 46.9872 125.325 46.5465C125.325 46.1058 124.995 45.7753 124.554 45.7753C124.113 45.7753 123.783 46.1058 123.783 46.5465Z" fill="white"/>
<path d="M128.822 49.7783V48.6766H127.904V46.7913H126.705V48.6766H126.203V49.7783H126.705V53.8303H127.904V49.7783H128.822Z" fill="white"/>
<path d="M129.633 53.8303H130.832V51.3452C130.832 50.6842 130.906 50.2924 131.077 50.0476C131.236 49.815 131.555 49.6192 131.959 49.6192C132.265 49.6192 132.497 49.7416 132.632 49.8885C132.864 50.1455 132.864 50.4761 132.864 50.7821V53.8303H134.064V50.6719C134.064 50.3047 134.052 49.7049 133.734 49.2397C133.587 49.0316 133.158 48.5419 132.216 48.5419C131.91 48.5419 131.346 48.5909 130.832 49.1173V44.9061H129.633V53.8303Z" fill="white"/>
<path d="M138.664 45.6651V50.9168C138.664 51.5656 138.798 52.349 139.423 53.0346C139.851 53.4997 140.573 53.9894 141.687 53.9894C142.801 53.9894 143.524 53.4997 143.952 53.0346C144.576 52.349 144.711 51.5656 144.711 50.9168V45.6651H143.462V50.5862C143.462 51.0269 143.45 51.5656 143.205 51.994C142.96 52.4102 142.41 52.8387 141.687 52.8387C140.965 52.8387 140.414 52.4102 140.169 51.994C139.925 51.5656 139.912 51.0269 139.912 50.5862V45.6651H138.664Z" fill="white"/>
<path d="M149.599 49.4478C149.415 49.1173 149.183 48.9214 149.011 48.8112C148.718 48.6153 148.424 48.5419 148.057 48.5419C147.42 48.5419 147.028 48.7867 146.796 49.0316C146.526 49.3131 146.367 49.7171 146.367 50.1333C146.367 50.4638 146.465 50.7454 146.734 51.0025C146.93 51.1983 147.212 51.333 147.444 51.4432L147.885 51.6513C148.081 51.737 148.252 51.8226 148.399 51.9695C148.51 52.092 148.558 52.2144 148.558 52.3613C148.558 52.5082 148.485 52.6673 148.387 52.7653C148.277 52.8754 148.081 52.9366 147.897 52.9366C147.616 52.9366 147.444 52.8142 147.371 52.7408C147.261 52.6428 147.151 52.4225 147.089 52.2511L146.11 52.7163C146.233 53.0835 146.477 53.4385 146.771 53.6589C147.138 53.9404 147.555 53.9894 147.885 53.9894C148.424 53.9894 148.926 53.8548 149.33 53.4141C149.611 53.108 149.783 52.704 149.783 52.2389C149.783 51.8839 149.685 51.5656 149.403 51.284C149.207 51.0759 148.95 50.9413 148.681 50.8066L148.069 50.5006C147.812 50.3659 147.738 50.3414 147.665 50.2924C147.555 50.219 147.493 50.1333 147.493 49.9986C147.493 49.8885 147.542 49.7905 147.604 49.7293C147.677 49.6559 147.799 49.5947 147.971 49.5947C148.35 49.5947 148.583 49.8395 148.705 50.0354L149.599 49.4478Z" fill="white"/>
<path d="M150.228 55.4094L151.036 55.74L152.554 52.7163L151.476 52.3001L150.228 55.4094Z" fill="white"/>
<path d="M162.392 46.8893C162.221 46.5465 161.988 46.265 161.768 46.0691C161.511 45.8487 161.009 45.5182 160.128 45.5182C158.597 45.5182 157.74 46.571 157.74 47.6727C157.74 48.8969 158.732 49.46 159.405 49.7416L160.189 50.0721C160.727 50.2924 161.364 50.6352 161.364 51.4676C161.364 52.2878 160.776 52.8387 160.017 52.8387C159.528 52.8387 159.185 52.6428 158.952 52.349C158.757 52.092 158.61 51.7125 158.61 51.3085L157.373 51.5778C157.422 52.1409 157.618 52.6796 158.059 53.1692C158.475 53.6344 159.038 53.9894 159.981 53.9894C161.511 53.9894 162.613 52.9244 162.613 51.3697C162.613 50.4393 162.196 49.5824 160.691 48.9704L159.87 48.6398C159.075 48.3215 158.989 47.8931 158.989 47.6483C158.989 47.1219 159.381 46.6689 160.14 46.6689C160.495 46.6689 160.764 46.7546 161.021 46.9627C161.205 47.1219 161.315 47.2933 161.388 47.4769L162.392 46.8893Z" fill="white"/>
<path d="M163.955 48.6766V53.8303H165.154V48.6766H163.955ZM163.783 46.5465C163.783 46.9872 164.114 47.3177 164.554 47.3177C164.995 47.3177 165.326 46.9872 165.326 46.5465C165.326 46.1058 164.995 45.7753 164.554 45.7753C164.114 45.7753 163.783 46.1058 163.783 46.5465Z" fill="white"/>
<path d="M168.823 49.7783V48.6766H167.905V46.7913H166.705V48.6766H166.203V49.7783H166.705V53.8303H167.905V49.7783H168.823Z" fill="white"/>
<path d="M172.253 49.7783V48.6766H170.955V46.7301C170.955 46.3629 171.09 46.1793 171.151 46.1181C171.31 45.9467 171.531 45.9222 171.677 45.9222C171.849 45.9222 172.008 45.9589 172.253 46.1058V44.9184C171.996 44.8082 171.739 44.7715 171.482 44.7715C170.857 44.7715 170.478 45.0408 170.257 45.2734C169.964 45.5917 169.755 46.0936 169.755 46.8893V48.6766H169.241V49.7783H169.755V53.8303H170.955V49.7783H172.253Z" fill="white"/>
<path d="M172.933 48.6766V51.6635C172.933 52.3246 173.006 52.8754 173.483 53.3528C173.949 53.8303 174.585 53.9894 175.112 53.9894C175.687 53.9894 176.323 53.818 176.789 53.3528C177.266 52.8754 177.34 52.3246 177.34 51.6635V48.6766H176.14V51.6268C176.14 51.9328 176.128 52.2878 175.92 52.5571C175.76 52.7653 175.479 52.9122 175.136 52.9122C174.793 52.9122 174.512 52.7653 174.353 52.5571C174.144 52.2878 174.132 51.9328 174.132 51.6268V48.6766H172.933Z" fill="white"/>
<path d="M181.017 49.7783V48.6766H180.098V46.7913H178.899V48.6766H178.397V49.7783H178.899V53.8303H180.098V49.7783H181.017Z" fill="white"/>
<path d="M184.447 49.7783V48.6766H183.149V46.7301C183.149 46.3629 183.284 46.1793 183.345 46.1181C183.504 45.9467 183.724 45.9222 183.871 45.9222C184.043 45.9222 184.202 45.9589 184.447 46.1058V44.9184C184.189 44.8082 183.932 44.7715 183.675 44.7715C183.051 44.7715 182.672 45.0408 182.451 45.2734C182.157 45.5917 181.949 46.0936 181.949 46.8893V48.6766H181.435V49.7783H181.949V53.8303H183.149V49.7783H184.447Z" fill="white"/>
<path d="M185.126 48.6766V51.6635C185.126 52.3246 185.2 52.8754 185.677 53.3528C186.142 53.8303 186.779 53.9894 187.305 53.9894C187.881 53.9894 188.517 53.818 188.982 53.3528C189.46 52.8754 189.533 52.3246 189.533 51.6635V48.6766H188.334V51.6268C188.334 51.9328 188.321 52.2878 188.113 52.5571C187.954 52.7653 187.673 52.9122 187.33 52.9122C186.987 52.9122 186.706 52.7653 186.546 52.5571C186.338 52.2878 186.326 51.9328 186.326 51.6268V48.6766H185.126Z" fill="white"/>
<path d="M191.056 44.9061V53.8303H192.256V51.8471L192.476 51.6268L194.165 53.8303H195.683L193.308 50.8188L195.524 48.6766H193.933L192.256 50.4026V44.9061H191.056Z" fill="white"/>
<path d="M199.951 52.092C199.841 52.2878 199.682 52.4959 199.474 52.6551C199.229 52.8387 198.984 52.9122 198.654 52.9122C198.36 52.9122 198.017 52.8632 197.735 52.5816C197.478 52.3246 197.319 51.9083 197.295 51.5411H200.992V51.3942C200.992 50.8556 200.93 49.9007 200.269 49.2152C199.963 48.8969 199.437 48.5419 198.617 48.5419C197.882 48.5419 197.319 48.8112 196.891 49.2397C196.352 49.7905 196.071 50.5618 196.071 51.3575C196.071 52.1287 196.34 52.8387 196.83 53.3284C197.319 53.818 197.882 53.9894 198.568 53.9894C199.119 53.9894 199.67 53.867 200.086 53.5977C200.416 53.3896 200.735 53.0468 200.955 52.6551L199.951 52.092ZM197.38 50.5618C197.442 50.3047 197.576 50.0599 197.748 49.9007C197.907 49.7416 198.176 49.5702 198.592 49.5702C198.984 49.5702 199.241 49.7171 199.4 49.864C199.584 50.0354 199.719 50.2802 199.767 50.5618H197.38Z" fill="white"/>
<path d="M206.572 53.8303V48.1257L212.497 54.3322V45.6651H211.248V51.3207L205.323 45.1142V53.8303H206.572Z" fill="white"/>
<path d="M218.006 49.2764C217.517 48.6398 216.856 48.5419 216.476 48.5419C215.117 48.5419 213.967 49.5702 213.967 51.2473C213.967 52.6673 214.873 53.9894 216.464 53.9894C216.831 53.9894 217.48 53.9037 218.006 53.2916V53.8303H219.206V48.6766H218.006V49.2764ZM216.623 49.6192C217.382 49.6192 218.08 50.1578 218.08 51.284C218.08 52.3613 217.382 52.9122 216.623 52.9122C215.754 52.9122 215.191 52.1654 215.191 51.2718C215.191 50.3537 215.754 49.6192 216.623 49.6192Z" fill="white"/>
<path d="M220.042 48.6766L222.723 54.1975L224.167 50.9045L225.612 54.1975L228.293 48.6766H226.946L225.612 51.6268L224.167 48.2359L222.723 51.6268L221.388 48.6766H220.042Z" fill="white"/>
<path d="M232.599 52.092C232.489 52.2878 232.33 52.4959 232.122 52.6551C231.877 52.8387 231.632 52.9122 231.302 52.9122C231.008 52.9122 230.665 52.8632 230.384 52.5816C230.127 52.3246 229.967 51.9083 229.943 51.5411H233.64V51.3942C233.64 50.8556 233.579 49.9007 232.918 49.2152C232.612 48.8969 232.085 48.5419 231.265 48.5419C230.531 48.5419 229.967 48.8112 229.539 49.2397C229 49.7905 228.719 50.5618 228.719 51.3575C228.719 52.1287 228.988 52.8387 229.478 53.3284C229.967 53.818 230.531 53.9894 231.216 53.9894C231.767 53.9894 232.318 53.867 232.734 53.5977C233.065 53.3896 233.383 53.0468 233.603 52.6551L232.599 52.092ZM230.029 50.5618C230.09 50.3047 230.225 50.0599 230.396 49.9007C230.555 49.7416 230.824 49.5702 231.241 49.5702C231.632 49.5702 231.889 49.7171 232.049 49.864C232.232 50.0354 232.367 50.2802 232.416 50.5618H230.029Z" fill="white"/>
<path d="M17.4987 51.7156C27.163 51.7156 34.9975 40.1387 34.9975 25.8578C34.9975 11.5769 27.163 0 17.4987 0C7.83445 0 0 11.5769 0 25.8578C0 40.1387 7.83445 51.7156 17.4987 51.7156Z" fill="white"/>
<path fill-rule="evenodd" clip-rule="evenodd" d="M8.73828 30.9867H15.7366V32.4444H8.73828V30.9867ZM19.256 41.4075H26.2543V42.8651H19.256V41.4075ZM19.256 38.8022H26.2543V40.2599H19.256V38.8022ZM19.256 36.1969H26.2543V37.6542H19.256V36.1969ZM19.256 33.5916H26.2543V35.0493H19.256V33.5916ZM19.256 30.9863H26.2543V32.444H19.256V30.9863ZM8.73828 41.4071H15.7366V42.8648H8.73828V41.4071ZM8.73828 38.8018H15.7366V40.2595H8.73828V38.8018ZM8.73828 36.1965H15.7366V37.6538H8.73828V36.1965ZM8.73828 33.5912H15.7366V35.0489H8.73828V33.5912Z" fill="#0B2548"/>
<path fill-rule="evenodd" clip-rule="evenodd" d="M8.73828 8.80664H15.7366V10.2643H8.73828V8.80664ZM19.256 19.2274H26.2543V20.6851H19.256V19.2274ZM19.256 16.6221H26.2543V18.0798H19.256V16.6221ZM19.256 14.0172H26.2543V15.4745H19.256V14.0172ZM19.256 11.4119H26.2543V12.8696H19.256V11.4119ZM19.256 8.80664H26.2543V10.2643H19.256V8.80664ZM8.73828 19.2274H15.7366V20.6851H8.73828V19.2274ZM8.73828 16.6221H15.7366V18.0798H8.73828V16.6221ZM8.73828 14.0172H15.7366V15.4745H8.73828V14.0172ZM8.73828 11.4119H15.7366V12.8696H8.73828V11.4119Z" fill="#0B2548"/>
<path fill-rule="evenodd" clip-rule="evenodd" d="M237.559 56.8027H246.222V84.8092C243.627 81.431 240.724 78.3117 237.559 75.4933V56.8031V56.8027Z" fill="#FAEC4D"/>
</svg>
