<svg width="281" height="67" viewBox="0 0 281 67" fill="none" xmlns="http://www.w3.org/2000/svg">
<path d="M49.8 0H14.525C6.50306 0 0 6.33766 0 14.1556V52.5778C0 60.3957 6.50306 66.7333 14.525 66.7333H49.8C57.8219 66.7333 64.325 60.3957 64.325 52.5778V14.1556C64.325 6.33766 57.8219 0 49.8 0Z" fill="#0B2548"/>
<path opacity="0.5" d="M15.5629 44.4883H11.4129C10.2669 44.4883 9.33789 45.3937 9.33789 46.5105V56.6216C9.33789 57.7385 10.2669 58.6438 11.4129 58.6438H15.5629C16.7089 58.6438 17.6379 57.7385 17.6379 56.6216V46.5105C17.6379 45.3937 16.7089 44.4883 15.5629 44.4883Z" fill="white"/>
<path opacity="0.7" d="M26.975 37.4111H22.825C21.679 37.4111 20.75 38.3165 20.75 39.4334V56.6222C20.75 57.7391 21.679 58.6445 22.825 58.6445H26.975C28.121 58.6445 29.05 57.7391 29.05 56.6222V39.4334C29.05 38.3165 28.121 37.4111 26.975 37.4111Z" fill="white"/>
<path opacity="0.85" d="M38.3891 28.3105H34.2391C33.0931 28.3105 32.1641 29.2159 32.1641 30.3328V56.6217C32.1641 57.7385 33.0931 58.6439 34.2391 58.6439H38.3891C39.5351 58.6439 40.4641 57.7385 40.4641 56.6217V30.3328C40.4641 29.2159 39.5351 28.3105 38.3891 28.3105Z" fill="white"/>
<path d="M49.7992 17.1885H45.6492C44.5032 17.1885 43.5742 18.0939 43.5742 19.2107V56.6218C43.5742 57.7387 44.5032 58.644 45.6492 58.644H49.7992C50.9452 58.644 51.8742 57.7387 51.8742 56.6218V19.2107C51.8742 18.0939 50.9452 17.1885 49.7992 17.1885Z" fill="white"/>
<path d="M13.4883 42.466L24.9008 35.3882L36.3133 26.2882L47.7258 15.166" stroke="#FAEC4D" stroke-width="2" stroke-linecap="round" stroke-linejoin="round"/>
<path d="M47.7266 17.6942C49.1591 17.6942 50.3203 16.5625 50.3203 15.1664C50.3203 13.7704 49.1591 12.6387 47.7266 12.6387C46.2941 12.6387 45.1328 13.7704 45.1328 15.1664C45.1328 16.5625 46.2941 17.6942 47.7266 17.6942Z" fill="#FAEC4D"/>
<path d="M88.2138 19.832H83.8587C83.7791 19.2686 83.6167 18.7681 83.3714 18.3306C83.1262 17.8865 82.8113 17.5086 82.4268 17.1971C82.0424 16.8855 81.5982 16.6469 81.0945 16.4812C80.5973 16.3155 80.0571 16.2326 79.4737 16.2326C78.4197 16.2326 77.5017 16.4944 76.7195 17.0181C75.9373 17.5352 75.3307 18.2908 74.8999 19.2852C74.469 20.2728 74.2536 21.4727 74.2536 22.8846C74.2536 24.3363 74.469 25.556 74.8999 26.5437C75.3374 27.5314 75.9472 28.2771 76.7294 28.7809C77.5116 29.2847 78.4164 29.5366 79.4439 29.5366C80.0206 29.5366 80.5542 29.4603 81.0447 29.3079C81.5419 29.1554 81.9827 28.9334 82.3672 28.6417C82.7517 28.3434 83.0698 27.9821 83.3217 27.5579C83.5803 27.1336 83.7592 26.6497 83.8587 26.1062L88.2138 26.1261C88.1011 27.0607 87.8194 27.9622 87.3686 28.8306C86.9245 29.6924 86.3246 30.4646 85.5689 31.1474C84.8198 31.8235 83.925 32.3604 82.8842 32.7582C81.8501 33.1493 80.6802 33.3448 79.3743 33.3448C77.558 33.3448 75.9339 32.9338 74.5021 32.1119C73.0769 31.2899 71.95 30.1 71.1214 28.5423C70.2995 26.9845 69.8885 25.0986 69.8885 22.8846C69.8885 20.6639 70.3061 18.7747 71.1413 17.217C71.9766 15.6592 73.1101 14.4727 74.5419 13.6573C75.9737 12.8353 77.5845 12.4244 79.3743 12.4244C80.5542 12.4244 81.648 12.5901 82.6555 12.9215C83.6697 13.253 84.5679 13.7369 85.3501 14.3732C86.1323 15.003 86.7687 15.7752 87.2592 16.69C87.7564 17.6048 88.0746 18.6521 88.2138 19.832ZM98.1222 33.3647C96.5777 33.3647 95.242 33.0366 94.1151 32.3803C92.9948 31.7174 92.1297 30.796 91.5199 29.6161C90.91 28.4296 90.6051 27.0541 90.6051 25.4897C90.6051 23.912 90.91 22.5333 91.5199 21.3533C92.1297 20.1668 92.9948 19.2454 94.1151 18.5891C95.242 17.9263 96.5777 17.5948 98.1222 17.5948C99.6667 17.5948 100.999 17.9263 102.119 18.5891C103.246 19.2454 104.115 20.1668 104.724 21.3533C105.334 22.5333 105.639 23.912 105.639 25.4897C105.639 27.0541 105.334 28.4296 104.724 29.6161C104.115 30.796 103.246 31.7174 102.119 32.3803C100.999 33.0366 99.6667 33.3647 98.1222 33.3647ZM98.142 30.0835C98.8447 30.0835 99.4313 29.8846 99.902 29.4869C100.373 29.0825 100.727 28.5323 100.966 27.8363C101.211 27.1403 101.334 26.3481 101.334 25.4599C101.334 24.5716 101.211 23.7795 100.966 23.0835C100.727 22.3874 100.373 21.8372 99.902 21.4329C99.4313 21.0285 98.8447 20.8263 98.142 20.8263C97.4328 20.8263 96.8362 21.0285 96.3523 21.4329C95.875 21.8372 95.5137 22.3874 95.2685 23.0835C95.0298 23.7795 94.9105 24.5716 94.9105 25.4599C94.9105 26.3481 95.0298 27.1403 95.2685 27.8363C95.5137 28.5323 95.875 29.0825 96.3523 29.4869C96.8362 29.8846 97.4328 30.0835 98.142 30.0835ZM118.188 26.5636V17.7937H122.423V33.0664H118.357V30.2923H118.197C117.853 31.1871 117.279 31.9064 116.477 32.4499C115.682 32.9935 114.711 33.2653 113.564 33.2653C112.543 33.2653 111.645 33.0333 110.869 32.5692C110.094 32.1052 109.487 31.4457 109.05 30.5906C108.619 29.7354 108.4 28.7113 108.393 27.5181V17.7937H112.629V26.7624C112.636 27.6639 112.878 28.3765 113.355 28.9002C113.832 29.4239 114.472 29.6857 115.274 29.6857C115.785 29.6857 116.262 29.5697 116.706 29.3377C117.15 29.0991 117.508 28.7478 117.78 28.2837C118.058 27.8197 118.194 27.2463 118.188 26.5636ZM130.047 24.2369V33.0664H125.811V17.7937H129.848V20.4883H130.027C130.365 19.6 130.932 18.8974 131.728 18.3803C132.523 17.8567 133.488 17.5948 134.621 17.5948C135.682 17.5948 136.606 17.8268 137.395 18.2908C138.184 18.7549 138.797 19.4177 139.235 20.2795C139.672 21.1346 139.891 22.1554 139.891 23.342V33.0664H135.655V24.0977C135.662 23.163 135.423 22.4338 134.939 21.9102C134.455 21.3799 133.789 21.1147 132.941 21.1147C132.371 21.1147 131.867 21.2373 131.429 21.4826C130.998 21.7279 130.66 22.0858 130.415 22.5565C130.176 23.0205 130.054 23.5806 130.047 24.2369ZM151.353 17.7937V20.9755H142.156V17.7937H151.353ZM144.244 14.1346H148.479V28.3732C148.479 28.7643 148.539 29.0692 148.658 29.288C148.778 29.5001 148.943 29.6493 149.156 29.7354C149.374 29.8216 149.626 29.8647 149.911 29.8647C150.11 29.8647 150.309 29.8481 150.508 29.815C150.707 29.7752 150.859 29.7454 150.965 29.7255L151.631 32.8775C151.419 32.9438 151.121 33.02 150.737 33.1062C150.352 33.199 149.885 33.2553 149.335 33.2752C148.314 33.315 147.419 33.1791 146.65 32.8675C145.888 32.556 145.294 32.0721 144.87 31.4158C144.446 30.7596 144.237 29.931 144.244 28.93V14.1346ZM160.908 33.3647C159.337 33.3647 157.985 33.0465 156.852 32.4102C155.725 31.7672 154.856 30.859 154.246 29.6857C153.637 28.5058 153.332 27.1104 153.332 25.4996C153.332 23.9286 153.637 22.5498 154.246 21.3633C154.856 20.1767 155.715 19.252 156.822 18.5891C157.935 17.9263 159.241 17.5948 160.739 17.5948C161.747 17.5948 162.685 17.7572 163.553 18.082C164.428 18.4002 165.191 18.8808 165.84 19.5238C166.496 20.1668 167.007 20.9755 167.371 21.9499C167.736 22.9177 167.918 24.0513 167.918 25.3505V26.5138H155.022V23.8888H163.931C163.931 23.279 163.799 22.7388 163.533 22.2681C163.268 21.7975 162.9 21.4296 162.43 21.1644C161.966 20.8926 161.425 20.7567 160.809 20.7567C160.166 20.7567 159.596 20.9059 159.099 21.2042C158.608 21.4959 158.224 21.8903 157.945 22.3874C157.667 22.878 157.524 23.4248 157.518 24.0281V26.5238C157.518 27.2795 157.657 27.9324 157.935 28.4826C158.22 29.0328 158.621 29.457 159.138 29.7553C159.656 30.0536 160.269 30.2028 160.978 30.2028C161.449 30.2028 161.879 30.1365 162.271 30.0039C162.662 29.8713 162.996 29.6725 163.275 29.4073C163.553 29.1422 163.765 28.8174 163.911 28.4329L167.829 28.6914C167.63 29.6327 167.222 30.4547 166.606 31.1573C165.996 31.8533 165.207 32.3969 164.239 32.788C163.278 33.1725 162.168 33.3647 160.908 33.3647ZM170.683 33.0664V17.7937H174.789V20.4585H174.948C175.227 19.5105 175.694 18.7946 176.35 18.3107C177.006 17.8202 177.762 17.5749 178.617 17.5749C178.829 17.5749 179.058 17.5882 179.303 17.6147C179.549 17.6412 179.764 17.6777 179.95 17.7241V21.4826C179.751 21.4229 179.476 21.3699 179.124 21.3235C178.773 21.2771 178.451 21.2539 178.16 21.2539C177.537 21.2539 176.98 21.3898 176.489 21.6616C176.005 21.9267 175.621 22.2979 175.336 22.7752C175.058 23.2525 174.918 23.8027 174.918 24.4258V33.0664H170.683ZM182.219 33.0664V12.7028H190.253C191.798 12.7028 193.114 12.9978 194.201 13.5877C195.288 14.171 196.116 14.9831 196.686 16.0238C197.263 17.0579 197.551 18.2511 197.551 19.6033C197.551 20.9556 197.26 22.1488 196.676 23.1829C196.093 24.217 195.248 25.0224 194.141 25.5991C193.041 26.1758 191.708 26.4641 190.144 26.4641H185.023V23.0138H189.448C190.276 23.0138 190.959 22.8713 191.496 22.5863C192.04 22.2946 192.444 21.8936 192.709 21.3832C192.981 20.8661 193.117 20.2728 193.117 19.6033C193.117 18.9272 192.981 18.3372 192.709 17.8335C192.444 17.323 192.04 16.9286 191.496 16.6502C190.953 16.3652 190.263 16.2227 189.428 16.2227H186.525V33.0664H182.219ZM200.268 33.0664V17.7937H204.375V20.4585H204.534C204.813 19.5105 205.28 18.7946 205.936 18.3107C206.592 17.8202 207.348 17.5749 208.203 17.5749C208.415 17.5749 208.644 17.5882 208.889 17.6147C209.134 17.6412 209.35 17.6777 209.536 17.7241V21.4826C209.337 21.4229 209.062 21.3699 208.71 21.3235C208.359 21.2771 208.037 21.2539 207.746 21.2539C207.123 21.2539 206.566 21.3898 206.075 21.6616C205.591 21.9267 205.207 22.2979 204.922 22.7752C204.643 23.2525 204.504 23.8027 204.504 24.4258V33.0664H200.268ZM217.915 33.3647C216.371 33.3647 215.035 33.0366 213.908 32.3803C212.788 31.7174 211.923 30.796 211.313 29.6161C210.703 28.4296 210.398 27.0541 210.398 25.4897C210.398 23.912 210.703 22.5333 211.313 21.3533C211.923 20.1668 212.788 19.2454 213.908 18.5891C215.035 17.9263 216.371 17.5948 217.915 17.5948C219.46 17.5948 220.792 17.9263 221.912 18.5891C223.039 19.2454 223.908 20.1668 224.517 21.3533C225.127 22.5333 225.432 23.912 225.432 25.4897C225.432 27.0541 225.127 28.4296 224.517 29.6161C223.908 30.796 223.039 31.7174 221.912 32.3803C220.792 33.0366 219.46 33.3647 217.915 33.3647ZM217.935 30.0835C218.638 30.0835 219.224 29.8846 219.695 29.4869C220.166 29.0825 220.52 28.5323 220.759 27.8363C221.004 27.1403 221.127 26.3481 221.127 25.4599C221.127 24.5716 221.004 23.7795 220.759 23.0835C220.52 22.3874 220.166 21.8372 219.695 21.4329C219.224 21.0285 218.638 20.8263 217.935 20.8263C217.226 20.8263 216.629 21.0285 216.145 21.4329C215.668 21.8372 215.307 22.3874 215.061 23.0835C214.823 23.7795 214.703 24.5716 214.703 25.4599C214.703 26.3481 214.823 27.1403 215.061 27.8363C215.307 28.5323 215.668 29.0825 216.145 29.4869C216.629 29.8846 217.226 30.0835 217.935 30.0835Z" fill="#0B2548"/>
<path d="M74.6992 44.4883H261.449" stroke="#122443" stroke-width="1.5"/>
<path d="M280.124 44.4883H251.074V66.7327H280.124V44.4883Z" fill="#F57921"/>
<path d="M280.127 44.4883H265.602V66.7327H280.127V44.4883Z" fill="#FAEC4D"/>
<path d="M74.9165 52.8787H75.7738L77.4883 55.7644H77.5607L79.2752 52.8787H80.1325L77.8988 56.513V59.0605H77.1502V56.513L74.9165 52.8787ZM82.2318 59.1571C81.8132 59.1571 81.446 59.0575 81.1301 58.8583C80.8161 58.6591 80.5706 58.3804 80.3936 58.0222C80.2185 57.664 80.1309 57.2454 80.1309 56.7665C80.1309 56.2836 80.2185 55.862 80.3936 55.5018C80.5706 55.1416 80.8161 54.8619 81.1301 54.6626C81.446 54.4634 81.8132 54.3638 82.2318 54.3638C82.6504 54.3638 83.0166 54.4634 83.3305 54.6626C83.6465 54.8619 83.892 55.1416 84.067 55.5018C84.2441 55.862 84.3327 56.2836 84.3327 56.7665C84.3327 57.2454 84.2441 57.664 84.067 58.0222C83.892 58.3804 83.6465 58.6591 83.3305 58.8583C83.0166 59.0575 82.6504 59.1571 82.2318 59.1571ZM82.2318 58.5172C82.5497 58.5172 82.8113 58.4357 83.0166 58.2727C83.2219 58.1097 83.3738 57.8954 83.4724 57.6298C83.571 57.3642 83.6203 57.0764 83.6203 56.7665C83.6203 56.4566 83.571 56.1679 83.4724 55.9002C83.3738 55.6326 83.2219 55.4163 83.0166 55.2512C82.8113 55.0862 82.5497 55.0037 82.2318 55.0037C81.9139 55.0037 81.6523 55.0862 81.447 55.2512C81.2417 55.4163 81.0898 55.6326 80.9912 55.9002C80.8926 56.1679 80.8433 56.4566 80.8433 56.7665C80.8433 57.0764 80.8926 57.3642 80.9912 57.6298C81.0898 57.8954 81.2417 58.1097 81.447 58.2727C81.6523 58.4357 81.9139 58.5172 82.2318 58.5172ZM88.3419 57.165V54.4242H89.0543V59.0605H88.3419V58.2757H88.2936C88.185 58.5112 88.0159 58.7114 87.7865 58.8764C87.5571 59.0394 87.2674 59.1209 86.9172 59.1209C86.6274 59.1209 86.3699 59.0575 86.1445 58.9308C85.9191 58.802 85.742 58.6088 85.6132 58.3512C85.4844 58.0916 85.4201 57.7646 85.4201 57.3702V54.4242H86.1324V57.3219C86.1324 57.66 86.227 57.9296 86.4161 58.1309C86.6073 58.3321 86.8508 58.4327 87.1466 58.4327C87.3237 58.4327 87.5038 58.3874 87.6869 58.2969C87.8721 58.2063 88.027 58.0675 88.1518 57.8803C88.2785 57.6932 88.3419 57.4547 88.3419 57.165ZM90.359 59.0605V54.4242H91.0472V55.1245H91.0955C91.18 54.8951 91.333 54.7089 91.5543 54.5661C91.7757 54.4232 92.0252 54.3517 92.3029 54.3517C92.3552 54.3517 92.4206 54.3527 92.4991 54.3548C92.5776 54.3568 92.637 54.3598 92.6772 54.3638V55.0882C92.6531 55.0822 92.5977 55.0732 92.5112 55.0611C92.4267 55.047 92.3371 55.04 92.2425 55.04C92.0172 55.04 91.8159 55.0872 91.6388 55.1818C91.4638 55.2744 91.3249 55.4032 91.2223 55.5682C91.1217 55.7312 91.0714 55.9173 91.0714 56.1266V59.0605H90.359ZM100.911 52.8787V59.0605H100.186L96.8178 54.2069H96.7574V59.0605H96.0088V52.8787H96.7333L100.114 57.7445H100.174V52.8787H100.911ZM105.234 57.165V54.4242H105.946V59.0605H105.234V58.2757H105.186C105.077 58.5112 104.908 58.7114 104.679 58.8764C104.449 59.0394 104.159 59.1209 103.809 59.1209C103.52 59.1209 103.262 59.0575 103.037 58.9308C102.811 58.802 102.634 58.6088 102.505 58.3512C102.377 58.0916 102.312 57.7646 102.312 57.3702V54.4242H103.025V57.3219C103.025 57.66 103.119 57.9296 103.308 58.1309C103.499 58.3321 103.743 58.4327 104.039 58.4327C104.216 58.4327 104.396 58.3874 104.579 58.2969C104.764 58.2063 104.919 58.0675 105.044 57.8803C105.171 57.6932 105.234 57.4547 105.234 57.165ZM107.251 59.0605V54.4242H107.939V55.1486H108C108.096 54.9011 108.252 54.7089 108.468 54.5721C108.683 54.4332 108.941 54.3638 109.243 54.3638C109.549 54.3638 109.804 54.4332 110.007 54.5721C110.212 54.7089 110.372 54.9011 110.487 55.1486H110.535C110.654 54.9091 110.832 54.719 111.069 54.5781C111.307 54.4353 111.592 54.3638 111.924 54.3638C112.338 54.3638 112.677 54.4936 112.941 54.7532C113.205 55.0108 113.336 55.4122 113.336 55.9576V59.0605H112.624V55.9576C112.624 55.6155 112.53 55.371 112.343 55.2241C112.156 55.0772 111.936 55.0037 111.682 55.0037C111.356 55.0037 111.104 55.1023 110.925 55.2995C110.745 55.4947 110.656 55.7422 110.656 56.0421V59.0605H109.932V55.8851C109.932 55.6215 109.846 55.4092 109.675 55.2482C109.504 55.0852 109.284 55.0037 109.014 55.0037C108.829 55.0037 108.656 55.053 108.495 55.1516C108.336 55.2502 108.207 55.3871 108.108 55.5621C108.012 55.7352 107.963 55.9354 107.963 56.1628V59.0605H107.251ZM114.735 59.0605V52.8787H115.448V55.1607H115.508C115.56 55.0802 115.633 54.9776 115.725 54.8528C115.82 54.726 115.955 54.6133 116.13 54.5147C116.307 54.4141 116.546 54.3638 116.848 54.3638C117.239 54.3638 117.583 54.4614 117.881 54.6566C118.178 54.8518 118.411 55.1285 118.578 55.4867C118.745 55.8449 118.828 56.2675 118.828 56.7544C118.828 57.2454 118.745 57.671 118.578 58.0312C118.411 58.3894 118.179 58.6671 117.884 58.8643C117.588 59.0595 117.247 59.1571 116.86 59.1571C116.563 59.1571 116.324 59.1078 116.145 59.0092C115.966 58.9086 115.828 58.7949 115.731 58.6681C115.635 58.5394 115.56 58.4327 115.508 58.3482H115.424V59.0605H114.735ZM115.436 56.7424C115.436 57.0925 115.487 57.4014 115.59 57.669C115.692 57.9347 115.842 58.1429 116.039 58.2939C116.237 58.4428 116.478 58.5172 116.764 58.5172C117.062 58.5172 117.31 58.4387 117.509 58.2818C117.711 58.1228 117.862 57.9095 117.962 57.6419C118.065 57.3722 118.116 57.0724 118.116 56.7424C118.116 56.4164 118.066 56.1226 117.965 55.861C117.867 55.5974 117.717 55.3891 117.515 55.2362C117.316 55.0812 117.066 55.0037 116.764 55.0037C116.474 55.0037 116.231 55.0772 116.033 55.2241C115.836 55.369 115.687 55.5722 115.587 55.8338C115.486 56.0934 115.436 56.3962 115.436 56.7424ZM121.862 59.1571C121.415 59.1571 121.03 59.0585 120.706 58.8613C120.384 58.6621 120.135 58.3844 119.96 58.0282C119.787 57.67 119.701 57.2535 119.701 56.7786C119.701 56.3037 119.787 55.8851 119.96 55.5229C120.135 55.1587 120.379 54.8749 120.691 54.6717C121.005 54.4664 121.371 54.3638 121.79 54.3638C122.031 54.3638 122.269 54.4041 122.505 54.4846C122.74 54.565 122.955 54.6958 123.148 54.877C123.341 55.056 123.495 55.2935 123.61 55.5893C123.724 55.8851 123.782 56.2493 123.782 56.682V56.9838H120.208V56.3681H123.057C123.057 56.1065 123.005 55.873 122.9 55.6678C122.798 55.4625 122.651 55.3005 122.46 55.1818C122.27 55.0631 122.047 55.0037 121.79 55.0037C121.506 55.0037 121.26 55.0742 121.053 55.215C120.848 55.3539 120.69 55.535 120.579 55.7583C120.468 55.9817 120.413 56.2212 120.413 56.4767V56.8873C120.413 57.2374 120.473 57.5342 120.594 57.7777C120.717 58.0192 120.887 58.2033 121.104 58.3301C121.322 58.4548 121.574 58.5172 121.862 58.5172C122.049 58.5172 122.218 58.4911 122.369 58.4387C122.522 58.3844 122.654 58.3039 122.765 58.1973C122.875 58.0886 122.961 57.9538 123.021 57.7928L123.709 57.986C123.637 58.2194 123.515 58.4247 123.344 58.6017C123.173 58.7768 122.962 58.9136 122.71 59.0123C122.459 59.1088 122.176 59.1571 121.862 59.1571ZM124.865 59.0605V54.4242H125.554V55.1245H125.602C125.686 54.8951 125.839 54.7089 126.061 54.5661C126.282 54.4232 126.532 54.3517 126.809 54.3517C126.862 54.3517 126.927 54.3527 127.005 54.3548C127.084 54.3568 127.143 54.3598 127.184 54.3638V55.0882C127.159 55.0822 127.104 55.0732 127.018 55.0611C126.933 55.047 126.843 55.04 126.749 55.04C126.524 55.04 126.322 55.0872 126.145 55.1818C125.97 55.2744 125.831 55.4032 125.729 55.5682C125.628 55.7312 125.578 55.9173 125.578 56.1266V59.0605H124.865ZM135.731 55.9696C135.731 56.6216 135.613 57.1851 135.378 57.66C135.142 58.1349 134.82 58.5011 134.409 58.7587C133.998 59.0163 133.53 59.1451 133.002 59.1451C132.475 59.1451 132.006 59.0163 131.596 58.7587C131.185 58.5011 130.862 58.1349 130.627 57.66C130.391 57.1851 130.274 56.6216 130.274 55.9696C130.274 55.3176 130.391 54.7542 130.627 54.2793C130.862 53.8044 131.185 53.4382 131.596 53.1806C132.006 52.923 132.475 52.7942 133.002 52.7942C133.53 52.7942 133.998 52.923 134.409 53.1806C134.82 53.4382 135.142 53.8044 135.378 54.2793C135.613 54.7542 135.731 55.3176 135.731 55.9696ZM135.007 55.9696C135.007 55.4344 134.917 54.9826 134.738 54.6143C134.561 54.2461 134.32 53.9674 134.017 53.7782C133.715 53.5891 133.377 53.4945 133.002 53.4945C132.628 53.4945 132.289 53.5891 131.985 53.7782C131.683 53.9674 131.443 54.2461 131.264 54.6143C131.087 54.9826 130.998 55.4344 130.998 55.9696C130.998 56.5049 131.087 56.9567 131.264 57.3249C131.443 57.6932 131.683 57.9719 131.985 58.161C132.289 58.3502 132.628 58.4448 133.002 58.4448C133.377 58.4448 133.715 58.3502 134.017 58.161C134.32 57.9719 134.561 57.6932 134.738 57.3249C134.917 56.9567 135.007 56.5049 135.007 55.9696ZM137.606 56.2715V59.0605H136.893V54.4242H137.581V55.1486H137.642C137.75 54.9132 137.915 54.724 138.137 54.5811C138.358 54.4363 138.644 54.3638 138.994 54.3638C139.308 54.3638 139.583 54.4282 139.818 54.557C140.054 54.6838 140.237 54.877 140.367 55.1365C140.498 55.3941 140.564 55.7201 140.564 56.1145V59.0605H139.851V56.1628C139.851 55.7986 139.757 55.5149 139.568 55.3116C139.378 55.1064 139.119 55.0037 138.789 55.0037C138.561 55.0037 138.358 55.053 138.179 55.1516C138.002 55.2502 137.862 55.3941 137.759 55.5833C137.657 55.7724 137.606 56.0018 137.606 56.2715ZM143.809 59.1571C143.363 59.1571 142.977 59.0585 142.653 58.8613C142.331 58.6621 142.083 58.3844 141.908 58.0282C141.735 57.67 141.648 57.2535 141.648 56.7786C141.648 56.3037 141.735 55.8851 141.908 55.5229C142.083 55.1587 142.326 54.8749 142.638 54.6717C142.952 54.4664 143.318 54.3638 143.737 54.3638C143.978 54.3638 144.217 54.4041 144.452 54.4846C144.688 54.565 144.902 54.6958 145.095 54.877C145.288 55.056 145.442 55.2935 145.557 55.5893C145.672 55.8851 145.729 56.2493 145.729 56.682V56.9838H142.155V56.3681H145.005C145.005 56.1065 144.952 55.873 144.848 55.6678C144.745 55.4625 144.598 55.3005 144.407 55.1818C144.218 55.0631 143.994 55.0037 143.737 55.0037C143.453 55.0037 143.208 55.0742 143 55.215C142.795 55.3539 142.637 55.535 142.526 55.7583C142.416 55.9817 142.36 56.2212 142.36 56.4767V56.8873C142.36 57.2374 142.421 57.5342 142.542 57.7777C142.664 58.0192 142.834 58.2033 143.052 58.3301C143.269 58.4548 143.521 58.5172 143.809 58.5172C143.996 58.5172 144.165 58.4911 144.316 58.4387C144.469 58.3844 144.601 58.3039 144.712 58.1973C144.822 58.0886 144.908 57.9538 144.968 57.7928L145.657 57.986C145.584 58.2194 145.462 58.4247 145.291 58.6017C145.12 58.7768 144.909 58.9136 144.657 59.0123C144.406 59.1088 144.123 59.1571 143.809 59.1571ZM149.3 59.0605V52.8787H151.389C151.874 52.8787 152.27 52.9663 152.578 53.1413C152.888 53.3144 153.117 53.5488 153.266 53.8446C153.415 54.1404 153.489 54.4705 153.489 54.8347C153.489 55.1989 153.415 55.5299 153.266 55.8278C153.119 56.1256 152.892 56.363 152.584 56.5401C152.276 56.7152 151.882 56.8027 151.401 56.8027H149.904V56.1387H151.377C151.709 56.1387 151.975 56.0813 152.176 55.9666C152.378 55.8519 152.524 55.697 152.614 55.5018C152.707 55.3046 152.753 55.0822 152.753 54.8347C152.753 54.5872 152.707 54.3658 152.614 54.1706C152.524 53.9754 152.377 53.8225 152.173 53.7118C151.97 53.5991 151.701 53.5428 151.364 53.5428H150.048V59.0605H149.3ZM156.432 59.1571C156.014 59.1571 155.647 59.0575 155.331 58.8583C155.017 58.6591 154.771 58.3804 154.594 58.0222C154.419 57.664 154.332 57.2454 154.332 56.7665C154.332 56.2836 154.419 55.862 154.594 55.5018C154.771 55.1416 155.017 54.8619 155.331 54.6626C155.647 54.4634 156.014 54.3638 156.432 54.3638C156.851 54.3638 157.217 54.4634 157.531 54.6626C157.847 54.8619 158.093 55.1416 158.268 55.5018C158.445 55.862 158.533 56.2836 158.533 56.7665C158.533 57.2454 158.445 57.664 158.268 58.0222C158.093 58.3804 157.847 58.6591 157.531 58.8583C157.217 59.0575 156.851 59.1571 156.432 59.1571ZM156.432 58.5172C156.75 58.5172 157.012 58.4357 157.217 58.2727C157.423 58.1097 157.574 57.8954 157.673 57.6298C157.772 57.3642 157.821 57.0764 157.821 56.7665C157.821 56.4566 157.772 56.1679 157.673 55.9002C157.574 55.6326 157.423 55.4163 157.217 55.2512C157.012 55.0862 156.75 55.0037 156.432 55.0037C156.115 55.0037 155.853 55.0862 155.648 55.2512C155.442 55.4163 155.29 55.6326 155.192 55.9002C155.093 56.1679 155.044 56.4566 155.044 56.7665C155.044 57.0764 155.093 57.3642 155.192 57.6298C155.29 57.8954 155.442 58.1097 155.648 58.2727C155.853 58.4357 156.115 58.5172 156.432 58.5172ZM159.621 59.0605V54.4242H160.333V59.0605H159.621ZM159.983 53.6515C159.844 53.6515 159.724 53.6042 159.624 53.5096C159.525 53.415 159.476 53.3013 159.476 53.1685C159.476 53.0357 159.525 52.922 159.624 52.8274C159.724 52.7328 159.844 52.6855 159.983 52.6855C160.122 52.6855 160.241 52.7328 160.339 52.8274C160.44 52.922 160.49 53.0357 160.49 53.1685C160.49 53.3013 160.44 53.415 160.339 53.5096C160.241 53.6042 160.122 53.6515 159.983 53.6515ZM162.35 56.2715V59.0605H161.638V54.4242H162.326V55.1486H162.386C162.495 54.9132 162.66 54.724 162.881 54.5811C163.103 54.4363 163.389 54.3638 163.739 54.3638C164.053 54.3638 164.327 54.4282 164.563 54.557C164.798 54.6838 164.981 54.877 165.112 55.1365C165.243 55.3941 165.308 55.7201 165.308 56.1145V59.0605H164.596V56.1628C164.596 55.7986 164.501 55.5149 164.312 55.3116C164.123 55.1064 163.863 55.0037 163.533 55.0037C163.306 55.0037 163.103 55.053 162.924 55.1516C162.747 55.2502 162.607 55.3941 162.504 55.5833C162.402 55.7724 162.35 56.0018 162.35 56.2715ZM168.626 54.4242V55.0279H166.224V54.4242H168.626ZM166.924 53.3134H167.636V57.7324C167.636 57.9337 167.665 58.0846 167.724 58.1852C167.784 58.2838 167.861 58.3502 167.953 58.3844C168.048 58.4166 168.147 58.4327 168.252 58.4327C168.331 58.4327 168.395 58.4287 168.445 58.4206C168.496 58.4106 168.536 58.4025 168.566 58.3965L168.711 59.0364C168.663 59.0545 168.595 59.0726 168.509 59.0907C168.422 59.1109 168.312 59.1209 168.18 59.1209C167.978 59.1209 167.781 59.0777 167.588 58.9911C167.397 58.9046 167.238 58.7728 167.111 58.5957C166.986 58.4186 166.924 58.1953 166.924 57.9256V53.3134ZM177.401 55.9696C177.401 56.6216 177.283 57.1851 177.048 57.66C176.812 58.1349 176.489 58.5011 176.079 58.7587C175.668 59.0163 175.2 59.1451 174.672 59.1451C174.145 59.1451 173.676 59.0163 173.266 58.7587C172.855 58.5011 172.532 58.1349 172.297 57.66C172.061 57.1851 171.944 56.6216 171.944 55.9696C171.944 55.3176 172.061 54.7542 172.297 54.2793C172.532 53.8044 172.855 53.4382 173.266 53.1806C173.676 52.923 174.145 52.7942 174.672 52.7942C175.2 52.7942 175.668 52.923 176.079 53.1806C176.489 53.4382 176.812 53.8044 177.048 54.2793C177.283 54.7542 177.401 55.3176 177.401 55.9696ZM176.677 55.9696C176.677 55.4344 176.587 54.9826 176.408 54.6143C176.231 54.2461 175.99 53.9674 175.687 53.7782C175.385 53.5891 175.047 53.4945 174.672 53.4945C174.298 53.4945 173.959 53.5891 173.655 53.7782C173.353 53.9674 173.113 54.2461 172.934 54.6143C172.757 54.9826 172.668 55.4344 172.668 55.9696C172.668 56.5049 172.757 56.9567 172.934 57.3249C173.113 57.6932 173.353 57.9719 173.655 58.161C173.959 58.3502 174.298 58.4448 174.672 58.4448C175.047 58.4448 175.385 58.3502 175.687 58.161C175.99 57.9719 176.231 57.6932 176.408 57.3249C176.587 56.9567 176.677 56.5049 176.677 55.9696ZM180.628 54.4242V55.0279H178.128V54.4242H180.628ZM178.877 59.0605V53.7843C178.877 53.5186 178.939 53.2973 179.064 53.1202C179.189 52.9431 179.351 52.8103 179.55 52.7218C179.749 52.6332 179.96 52.589 180.181 52.589C180.356 52.589 180.499 52.603 180.61 52.6312C180.72 52.6594 180.803 52.6855 180.857 52.7097L180.652 53.3255C180.616 53.3134 180.565 53.2983 180.501 53.2802C180.439 53.2621 180.356 53.253 180.253 53.253C180.018 53.253 179.848 53.3124 179.743 53.4311C179.641 53.5498 179.589 53.7239 179.589 53.9533V59.0605H178.877ZM187.494 54.4242C187.458 54.1183 187.311 53.8809 187.053 53.7118C186.796 53.5428 186.48 53.4583 186.106 53.4583C185.832 53.4583 185.592 53.5025 185.387 53.5911C185.184 53.6796 185.025 53.8014 184.91 53.9563C184.798 54.1113 184.741 54.2873 184.741 54.4846C184.741 54.6496 184.78 54.7914 184.859 54.9102C184.939 55.0269 185.042 55.1245 185.167 55.2029C185.292 55.2794 185.422 55.3428 185.559 55.3931C185.696 55.4414 185.822 55.4806 185.936 55.5108L186.564 55.6799C186.725 55.7221 186.904 55.7805 187.102 55.8549C187.301 55.9294 187.491 56.031 187.672 56.1598C187.855 56.2866 188.006 56.4496 188.125 56.6488C188.244 56.848 188.303 57.0925 188.303 57.3823C188.303 57.7163 188.215 58.0182 188.04 58.2878C187.867 58.5575 187.614 58.7718 187.28 58.9308C186.948 59.0897 186.544 59.1692 186.069 59.1692C185.627 59.1692 185.243 59.0978 184.919 58.9549C184.597 58.812 184.344 58.6128 184.159 58.3572C183.975 58.1017 183.872 57.8049 183.848 57.4668H184.62C184.641 57.7002 184.719 57.8934 184.856 58.0463C184.995 58.1973 185.17 58.31 185.381 58.3844C185.594 58.4569 185.824 58.4931 186.069 58.4931C186.355 58.4931 186.612 58.4468 186.839 58.3542C187.066 58.2596 187.246 58.1288 187.379 57.9618C187.512 57.7928 187.579 57.5956 187.579 57.3702C187.579 57.165 187.521 56.9979 187.406 56.8691C187.292 56.7404 187.141 56.6357 186.954 56.5552C186.767 56.4747 186.564 56.4043 186.347 56.3439L185.586 56.1266C185.103 55.9877 184.721 55.7895 184.439 55.532C184.158 55.2744 184.017 54.9373 184.017 54.5208C184.017 54.1747 184.11 53.8728 184.297 53.6152C184.487 53.3556 184.74 53.1544 185.058 53.0115C185.378 52.8667 185.735 52.7942 186.13 52.7942C186.528 52.7942 186.882 52.8656 187.192 53.0085C187.502 53.1494 187.748 53.3426 187.929 53.5881C188.112 53.8336 188.208 54.1123 188.218 54.4242H187.494ZM190.801 59.1692C190.508 59.1692 190.241 59.1139 190.002 59.0032C189.762 58.8905 189.572 58.7285 189.431 58.5172C189.29 58.3039 189.22 58.0463 189.22 57.7445C189.22 57.4789 189.272 57.2636 189.377 57.0985C189.481 56.9315 189.621 56.8007 189.796 56.7061C189.971 56.6116 190.165 56.5411 190.376 56.4949C190.589 56.4466 190.804 56.4083 191.019 56.3801C191.301 56.3439 191.529 56.3168 191.704 56.2987C191.881 56.2785 192.01 56.2453 192.09 56.199C192.173 56.1528 192.214 56.0723 192.214 55.9576V55.9334C192.214 55.6356 192.133 55.4042 191.97 55.2392C191.809 55.0742 191.564 54.9917 191.236 54.9917C190.896 54.9917 190.629 55.0661 190.436 55.215C190.243 55.3639 190.107 55.5229 190.029 55.6919L189.353 55.4505C189.473 55.1687 189.634 54.9494 189.836 54.7924C190.039 54.6335 190.26 54.5228 190.5 54.4604C190.741 54.396 190.979 54.3638 191.212 54.3638C191.361 54.3638 191.532 54.3819 191.725 54.4181C191.92 54.4524 192.108 54.5238 192.29 54.6325C192.473 54.7411 192.625 54.9051 192.745 55.1245C192.866 55.3438 192.926 55.6376 192.926 56.0059V59.0605H192.214V58.4327H192.178C192.13 58.5333 192.049 58.641 191.936 58.7557C191.824 58.8704 191.674 58.968 191.487 59.0485C191.3 59.129 191.071 59.1692 190.801 59.1692ZM190.91 58.5293C191.192 58.5293 191.429 58.474 191.623 58.3633C191.818 58.2526 191.965 58.1097 192.063 57.9347C192.164 57.7596 192.214 57.5755 192.214 57.3823V56.7303C192.184 56.7665 192.118 56.7997 192.015 56.8299C191.914 56.8581 191.798 56.8832 191.665 56.9054C191.534 56.9255 191.406 56.9436 191.281 56.9597C191.159 56.9738 191.059 56.9859 190.983 56.9959C190.797 57.0201 190.624 57.0593 190.463 57.1136C190.304 57.166 190.176 57.2454 190.077 57.3521C189.98 57.4567 189.932 57.5996 189.932 57.7807C189.932 58.0282 190.024 58.2154 190.207 58.3422C190.392 58.4669 190.626 58.5293 190.91 58.5293ZM194.939 52.8787V59.0605H194.227V52.8787H194.939ZM198.188 59.1571C197.741 59.1571 197.356 59.0585 197.032 58.8613C196.71 58.6621 196.461 58.3844 196.286 58.0282C196.113 57.67 196.026 57.2535 196.026 56.7786C196.026 56.3037 196.113 55.8851 196.286 55.5229C196.461 55.1587 196.705 54.8749 197.017 54.6717C197.33 54.4664 197.697 54.3638 198.115 54.3638C198.357 54.3638 198.595 54.4041 198.831 54.4846C199.066 54.565 199.28 54.6958 199.474 54.877C199.667 55.056 199.821 55.2935 199.935 55.5893C200.05 55.8851 200.107 56.2493 200.107 56.682V56.9838H196.534V56.3681H199.383C199.383 56.1065 199.331 55.873 199.226 55.6678C199.123 55.4625 198.977 55.3005 198.785 55.1818C198.596 55.0631 198.373 55.0037 198.115 55.0037C197.831 55.0037 197.586 55.0742 197.379 55.215C197.173 55.3539 197.016 55.535 196.905 55.7583C196.794 55.9817 196.739 56.2212 196.739 56.4767V56.8873C196.739 57.2374 196.799 57.5342 196.92 57.7777C197.043 58.0192 197.213 58.2033 197.43 58.3301C197.647 58.4548 197.9 58.5172 198.188 58.5172C198.375 58.5172 198.544 58.4911 198.695 58.4387C198.848 58.3844 198.98 58.3039 199.09 58.1973C199.201 58.0886 199.286 57.9538 199.347 57.7928L200.035 57.986C199.963 58.2194 199.841 58.4247 199.67 58.6017C199.499 58.7768 199.287 58.9136 199.036 59.0123C198.784 59.1088 198.502 59.1571 198.188 59.1571ZM207.059 54.4242C207.023 54.1183 206.876 53.8809 206.618 53.7118C206.361 53.5428 206.045 53.4583 205.67 53.4583C205.397 53.4583 205.157 53.5025 204.952 53.5911C204.749 53.6796 204.59 53.8014 204.475 53.9563C204.362 54.1113 204.306 54.2873 204.306 54.4846C204.306 54.6496 204.345 54.7914 204.424 54.9102C204.504 55.0269 204.607 55.1245 204.732 55.2029C204.856 55.2794 204.987 55.3428 205.124 55.3931C205.261 55.4414 205.387 55.4806 205.501 55.5108L206.129 55.6799C206.29 55.7221 206.469 55.7805 206.667 55.8549C206.866 55.9294 207.056 56.031 207.237 56.1598C207.42 56.2866 207.571 56.4496 207.69 56.6488C207.809 56.848 207.868 57.0925 207.868 57.3823C207.868 57.7163 207.78 58.0182 207.605 58.2878C207.432 58.5575 207.179 58.7718 206.845 58.9308C206.513 59.0897 206.109 59.1692 205.634 59.1692C205.192 59.1692 204.808 59.0978 204.484 58.9549C204.162 58.812 203.909 58.6128 203.724 58.3572C203.54 58.1017 203.437 57.8049 203.413 57.4668H204.185C204.205 57.7002 204.284 57.8934 204.421 58.0463C204.56 58.1973 204.735 58.31 204.946 58.3844C205.159 58.4569 205.389 58.4931 205.634 58.4931C205.92 58.4931 206.177 58.4468 206.404 58.3542C206.631 58.2596 206.811 58.1288 206.944 57.9618C207.077 57.7928 207.143 57.5956 207.143 57.3702C207.143 57.165 207.086 56.9979 206.971 56.8691C206.857 56.7404 206.706 56.6357 206.519 56.5552C206.331 56.4747 206.129 56.4043 205.912 56.3439L205.151 56.1266C204.668 55.9877 204.286 55.7895 204.004 55.532C203.723 55.2744 203.582 54.9373 203.582 54.5208C203.582 54.1747 203.675 53.8728 203.862 53.6152C204.052 53.3556 204.305 53.1544 204.623 53.0115C204.943 52.8667 205.3 52.7942 205.695 52.7942C206.093 52.7942 206.447 52.8656 206.757 53.0085C207.067 53.1494 207.313 53.3426 207.494 53.5881C207.677 53.8336 207.773 54.1123 207.783 54.4242H207.059ZM210.886 59.1571C210.467 59.1571 210.1 59.0575 209.784 58.8583C209.47 58.6591 209.224 58.3804 209.047 58.0222C208.872 57.664 208.785 57.2454 208.785 56.7665C208.785 56.2836 208.872 55.862 209.047 55.5018C209.224 55.1416 209.47 54.8619 209.784 54.6626C210.1 54.4634 210.467 54.3638 210.886 54.3638C211.304 54.3638 211.67 54.4634 211.984 54.6626C212.3 54.8619 212.546 55.1416 212.721 55.5018C212.898 55.862 212.986 56.2836 212.986 56.7665C212.986 57.2454 212.898 57.664 212.721 58.0222C212.546 58.3804 212.3 58.6591 211.984 58.8583C211.67 59.0575 211.304 59.1571 210.886 59.1571ZM210.886 58.5172C211.204 58.5172 211.465 58.4357 211.67 58.2727C211.876 58.1097 212.028 57.8954 212.126 57.6298C212.225 57.3642 212.274 57.0764 212.274 56.7665C212.274 56.4566 212.225 56.1679 212.126 55.9002C212.028 55.6326 211.876 55.4163 211.67 55.2512C211.465 55.0862 211.204 55.0037 210.886 55.0037C210.568 55.0037 210.306 55.0862 210.101 55.2512C209.896 55.4163 209.744 55.6326 209.645 55.9002C209.546 56.1679 209.497 56.4566 209.497 56.7665C209.497 57.0764 209.546 57.3642 209.645 57.6298C209.744 57.8954 209.896 58.1097 210.101 58.2727C210.306 58.4357 210.568 58.5172 210.886 58.5172ZM214.786 52.8787V59.0605H214.074V52.8787H214.786ZM219.013 57.165V54.4242H219.725V59.0605H219.013V58.2757H218.965C218.856 58.5112 218.687 58.7114 218.457 58.8764C218.228 59.0394 217.938 59.1209 217.588 59.1209C217.298 59.1209 217.041 59.0575 216.815 58.9308C216.59 58.802 216.413 58.6088 216.284 58.3512C216.155 58.0916 216.091 57.7646 216.091 57.3702V54.4242H216.803V57.3219C216.803 57.66 216.898 57.9296 217.087 58.1309C217.278 58.3321 217.522 58.4327 217.818 58.4327C217.995 58.4327 218.175 58.3874 218.358 58.2969C218.543 58.2063 218.698 58.0675 218.823 57.8803C218.949 57.6932 219.013 57.4547 219.013 57.165ZM223.046 54.4242V55.0279H220.644V54.4242H223.046ZM221.344 53.3134H222.056V57.7324C222.056 57.9337 222.085 58.0846 222.144 58.1852C222.204 58.2838 222.281 58.3502 222.373 58.3844C222.468 58.4166 222.567 58.4327 222.672 58.4327C222.75 58.4327 222.815 58.4287 222.865 58.4206C222.915 58.4106 222.956 58.4025 222.986 58.3965L223.131 59.0364C223.082 59.0545 223.015 59.0726 222.929 59.0907C222.842 59.1109 222.732 59.1209 222.6 59.1209C222.398 59.1209 222.201 59.0777 222.008 58.9911C221.817 58.9046 221.658 58.7728 221.531 58.5957C221.406 58.4186 221.344 58.1953 221.344 57.9256V53.3134ZM224.118 59.0605V54.4242H224.83V59.0605H224.118ZM224.48 53.6515C224.341 53.6515 224.221 53.6042 224.121 53.5096C224.022 53.415 223.973 53.3013 223.973 53.1685C223.973 53.0357 224.022 52.922 224.121 52.8274C224.221 52.7328 224.341 52.6855 224.48 52.6855C224.619 52.6855 224.738 52.7328 224.836 52.8274C224.937 52.922 224.987 53.0357 224.987 53.1685C224.987 53.3013 224.937 53.415 224.836 53.5096C224.738 53.6042 224.619 53.6515 224.48 53.6515ZM228.018 59.1571C227.6 59.1571 227.233 59.0575 226.917 58.8583C226.603 58.6591 226.357 58.3804 226.18 58.0222C226.005 57.664 225.918 57.2454 225.918 56.7665C225.918 56.2836 226.005 55.862 226.18 55.5018C226.357 55.1416 226.603 54.8619 226.917 54.6626C227.233 54.4634 227.6 54.3638 228.018 54.3638C228.437 54.3638 228.803 54.4634 229.117 54.6626C229.433 54.8619 229.679 55.1416 229.854 55.5018C230.031 55.862 230.119 56.2836 230.119 56.7665C230.119 57.2454 230.031 57.664 229.854 58.0222C229.679 58.3804 229.433 58.6591 229.117 58.8583C228.803 59.0575 228.437 59.1571 228.018 59.1571ZM228.018 58.5172C228.336 58.5172 228.598 58.4357 228.803 58.2727C229.008 58.1097 229.16 57.8954 229.259 57.6298C229.358 57.3642 229.407 57.0764 229.407 56.7665C229.407 56.4566 229.358 56.1679 229.259 55.9002C229.16 55.6326 229.008 55.4163 228.803 55.2512C228.598 55.0862 228.336 55.0037 228.018 55.0037C227.7 55.0037 227.439 55.0862 227.234 55.2512C227.028 55.4163 226.876 55.6326 226.778 55.9002C226.679 56.1679 226.63 56.4566 226.63 56.7665C226.63 57.0764 226.679 57.3642 226.778 57.6298C226.876 57.8954 227.028 58.1097 227.234 58.2727C227.439 58.4357 227.7 58.5172 228.018 58.5172ZM231.919 56.2715V59.0605H231.207V54.4242H231.895V55.1486H231.955C232.064 54.9132 232.229 54.724 232.45 54.5811C232.672 54.4363 232.957 54.3638 233.308 54.3638C233.621 54.3638 233.896 54.4282 234.132 54.557C234.367 54.6838 234.55 54.877 234.681 55.1365C234.812 55.3941 234.877 55.7201 234.877 56.1145V59.0605H234.165V56.1628C234.165 55.7986 234.07 55.5149 233.881 55.3116C233.692 55.1064 233.432 55.0037 233.102 55.0037C232.875 55.0037 232.672 55.053 232.493 55.1516C232.315 55.2502 232.176 55.3941 232.073 55.5833C231.97 55.7724 231.919 56.0018 231.919 56.2715ZM239.463 55.4625L238.823 55.6436C238.783 55.537 238.723 55.4334 238.645 55.3327C238.568 55.2301 238.464 55.1456 238.331 55.0792C238.198 55.0128 238.028 54.9796 237.821 54.9796C237.537 54.9796 237.301 55.045 237.112 55.1758C236.924 55.3046 236.831 55.4686 236.831 55.6678C236.831 55.8449 236.895 55.9847 237.024 56.0874C237.153 56.19 237.354 56.2755 237.628 56.3439L238.316 56.513C238.73 56.6136 239.039 56.7675 239.243 56.9748C239.446 57.18 239.547 57.4447 239.547 57.7686C239.547 58.0343 239.471 58.2717 239.318 58.481C239.167 58.6903 238.956 58.8553 238.684 58.976C238.413 59.0968 238.097 59.1571 237.736 59.1571C237.263 59.1571 236.872 59.0545 236.562 58.8493C236.252 58.644 236.056 58.3442 235.974 57.9498L236.65 57.7807C236.714 58.0302 236.836 58.2174 237.015 58.3422C237.196 58.4669 237.433 58.5293 237.724 58.5293C238.056 58.5293 238.32 58.4589 238.515 58.318C238.712 58.1751 238.811 58.0041 238.811 57.8049C238.811 57.6439 238.755 57.5091 238.642 57.4004C238.529 57.2897 238.356 57.2072 238.123 57.1529L237.35 56.9718C236.925 56.8712 236.614 56.7152 236.414 56.5039C236.217 56.2906 236.118 56.024 236.118 55.704C236.118 55.4424 236.192 55.211 236.339 55.0098C236.488 54.8085 236.69 54.6506 236.946 54.5359C237.203 54.4212 237.495 54.3638 237.821 54.3638C238.28 54.3638 238.64 54.4644 238.902 54.6657C239.165 54.8669 239.352 55.1325 239.463 55.4625Z" fill="#F57921"/>
</svg>
