<svg width="125" height="43" viewBox="0 0 125 43" fill="none" xmlns="http://www.w3.org/2000/svg">
<path d="M87.75 8.69004V19.0761H91.0324C91.942 19.0761 93.1478 19.0366 94.1959 18.2063C94.9076 17.6525 95.5402 16.6244 95.5402 15.3592C95.5402 14.0937 94.8678 12.4923 93.0292 12.0374C94.1959 11.2465 94.3342 10.0997 94.3342 9.44725C94.3342 7.84564 93.5629 7.03498 93.1478 6.7186C92.1792 5.94754 90.8543 5.88824 90.1227 5.88824H87.8159C88.2809 6.21769 88.6597 6.66886 88.6597 7.25247C88.6597 7.87334 88.247 8.34927 87.75 8.69023V8.69004ZM89.2133 7.27217H90.3599C90.7751 7.27217 92.9104 7.31157 92.9104 9.48665C92.9104 11.5232 91.0915 11.6812 90.3203 11.6812H89.2133V7.27217ZM89.2133 12.9864H90.7158C91.7637 12.9864 92.4558 13.105 92.9502 13.3817C93.4642 13.6585 94.0773 14.2716 94.0773 15.3193C94.0773 16.1102 93.7215 16.7627 93.2071 17.1384C92.5745 17.6326 91.7442 17.6919 90.8939 17.6919H89.2135V12.9864H89.2133ZM104.161 12.0372C103.785 11.5429 102.935 10.673 101.353 10.673C99.2576 10.673 97.3593 12.1359 97.3593 14.9633C97.3593 17.8499 99.2773 19.313 101.353 19.313C102.796 19.313 103.686 18.542 104.161 17.9289V19.0759H105.584V10.8704H104.161V12.037V12.0372ZM101.511 11.9381C102.777 11.9381 104.24 12.8676 104.24 14.9832C104.24 16.6047 103.251 18.0477 101.511 18.0477C99.811 18.0477 98.8222 16.7233 98.8222 14.9635C98.8222 12.9665 100.108 11.9383 101.511 11.9383V11.9381ZM108.273 19.0759H109.697V14.7854C109.697 14.1922 109.737 13.2236 110.29 12.5711C110.705 12.0768 111.239 11.9383 111.733 11.9383C112.366 11.9383 112.801 12.1757 113.078 12.5315C113.414 12.9665 113.454 13.5399 113.454 14.0342V19.0761H114.877V13.9948C114.877 13.0851 114.818 12.4129 114.403 11.8C113.908 11.0684 113.019 10.6732 112.05 10.6732C110.686 10.6732 109.954 11.4836 109.697 11.8197V10.8708H108.273V19.0762V19.0759ZM117.566 4.6623V19.0759H118.99V15.6949L119.345 15.339L122.628 19.0759H124.486L120.334 14.3898L123.854 10.8704H121.995L118.989 13.9154V4.66211H117.566L117.566 4.6623Z" fill="#0B2548"/>
<path d="M85.7284 19.2852V10.2012H82.3633V19.2852H85.7284Z" fill="#0B2548"/>
<path d="M80.362 19.2843V13.0987C80.362 11.6008 79.7979 10.0059 78.0473 10.0059C76.8217 10.0059 76.1021 10.8813 75.6547 11.9317C75.6935 11.348 75.713 10.7839 75.7323 10.2005H72.3672V19.2843H75.7323V14.7132C75.7323 14.2269 75.7908 13.371 76.4521 13.371C76.9967 13.371 76.9774 14.0907 76.9774 14.4797V19.2843H80.362Z" fill="#0B2548"/>
<path d="M70.3729 19.2852V10.2012H67.0078V19.2852H70.3729Z" fill="#0B2548"/>
<path d="M74.0561 7.2498C74.0561 6.1801 72.0257 5.30469 69.5983 5.30469C67.171 5.30469 65.1406 6.1801 65.1406 7.2498C65.1406 8.31969 67.1267 9.23392 69.5983 9.23392C72.07 9.23392 74.0561 8.33919 74.0561 7.2498Z" fill="#0B2548"/>
<path d="M65.6536 12.9232V10.2H64.5449V7.53516H61.1798V10.2H60.207V12.9232H61.1798V19.284H64.5449V12.9232H65.6536Z" fill="#0B2548"/>
<path d="M55.2883 14.3435C55.2883 14.9465 55.3856 16.6973 54.4907 16.6973C53.7709 16.6973 53.7321 15.5691 53.7321 15.0635C53.7321 14.4604 53.7126 12.7876 54.5878 12.7876C55.2688 12.7876 55.2881 13.8575 55.2881 14.3437L55.2883 14.3435ZM58.7119 19.2843V10.2005H55.2689C55.3273 10.6868 55.3273 11.1536 55.3661 11.6399C54.9381 10.7256 54.2769 10.0059 53.1875 10.0059C50.8727 10.0059 50.3477 12.8847 50.3477 14.6937C50.3477 16.4443 50.8144 19.4788 53.1099 19.4788C54.2769 19.4788 54.9576 18.7202 55.4441 17.7475C55.4053 18.2533 55.3663 18.7784 55.3275 19.2841H58.7121L58.7119 19.2843Z" fill="#0B2548"/>
<path d="M50.0822 10.2012H46.7171C46.328 12.0296 45.9585 13.8386 45.6862 15.6866C45.5306 13.8386 45.2 12.0296 44.8887 10.2012H42.0098C41.6014 12.0101 41.1541 13.8386 40.9789 15.6866C40.8428 13.8386 40.4538 12.0296 40.1232 10.2012H36.8164L39.0728 19.285H42.3796L43.4105 13.8384L44.1108 19.285H47.4371L50.0826 10.2012H50.0822Z" fill="#0B2548"/>
<path d="M35.8865 10.7451C35.0306 10.3172 34.1553 10.0059 33.1828 10.0059C31.3543 10.0059 29.448 11.0953 29.448 13.1182C29.448 15.8026 32.7158 15.5498 32.7158 16.4833C32.7158 16.8334 32.3464 16.9696 32.0546 16.9696C31.4322 16.9696 30.7707 16.4445 30.3623 16.0165L29.1367 18.5258C30.2261 19.1094 31.1013 19.479 32.3657 19.479C34.272 19.479 36.0226 18.3508 36.0226 16.2888C36.0226 13.5461 32.813 13.9351 32.813 12.8459C32.813 12.5541 33.0853 12.4179 33.3383 12.4179C33.8635 12.4179 34.3691 12.8654 34.7194 13.2155L35.8865 10.7451Z" fill="#0B2548"/>
<path d="M27.661 19.2869V16.1746H24.6653V14.1905H27.3499V11.2533H24.6653V9.36651H27.661V6.3125H21.1641V19.2869H27.661Z" fill="#0B2548"/>
<path d="M88.1928 7.2498C88.1928 6.1801 86.1625 5.30469 83.735 5.30469C81.3077 5.30469 79.2773 6.1801 79.2773 7.2498C79.2773 8.31969 81.2634 9.23392 83.735 9.23392C86.2067 9.23392 88.1928 8.33919 88.1928 7.2498Z" fill="#0B2548"/>
<path d="M124.839 20.5488H21.1641V21.3601H124.839V20.5488Z" fill="#122443"/>
<path fill-rule="evenodd" clip-rule="evenodd" d="M120.447 28.8008H100.531V29.8999C108.132 30.3956 115.047 33.4703 120.447 38.2776V28.8008Z" fill="#F57921"/>
<path d="M43.6876 25.7219H44.7179C44.6931 25.9577 44.6 26.1998 44.3703 26.4232C44.1034 26.6839 43.8055 26.7894 43.4455 26.7894C43.0483 26.7894 42.6945 26.6777 42.409 26.3736C42.1359 26.0819 41.9807 25.666 41.9807 25.2502C41.9807 24.8033 42.1483 24.3626 42.4214 24.0895C42.6262 23.8847 42.9738 23.6613 43.5138 23.6613C43.7683 23.6613 44.0165 23.7047 44.2462 23.8413C44.4448 23.953 44.631 24.1392 44.7551 24.313L45.2579 23.9592C45.14 23.773 44.9289 23.5309 44.5876 23.3385C44.2648 23.1585 43.88 23.0778 43.5076 23.0778C42.8683 23.0778 42.3035 23.3385 41.9497 23.6985C41.6083 24.0399 41.3477 24.5985 41.3477 25.244C41.3477 25.8398 41.5587 26.3922 41.9621 26.8081C42.3407 27.1991 42.769 27.3729 43.371 27.3729C43.8428 27.3729 44.3517 27.2612 44.78 26.8453C45.1834 26.4543 45.3944 25.8771 45.3944 25.1695V25.1385H43.6876V25.7219Z" fill="#0B2548"/>
<path d="M46.0775 27.2922H46.6857V25.9391C46.6857 25.7653 46.6857 25.5171 46.8533 25.3371C46.9712 25.2129 47.1016 25.1943 47.2319 25.1943C47.294 25.1943 47.4057 25.2005 47.5423 25.2874L47.7905 24.735C47.6229 24.6357 47.4616 24.6109 47.3126 24.6109C47.1761 24.6109 47.0581 24.6295 46.9402 24.6978C46.8533 24.7474 46.754 24.8343 46.6857 24.915V24.6792H46.0775V27.2922Z" fill="#0B2548"/>
<path d="M49.277 24.6109C48.4888 24.6109 47.8805 25.1819 47.8805 25.9888C47.8805 26.7894 48.4888 27.3729 49.277 27.3729C50.0653 27.3729 50.6735 26.7894 50.6735 25.9888C50.6735 25.1819 50.0653 24.6109 49.277 24.6109ZM49.277 26.8267C48.7991 26.8267 48.5012 26.4977 48.5012 25.995C48.5012 25.3991 48.8922 25.1571 49.277 25.1571C49.6618 25.1571 50.0529 25.3991 50.0529 25.995C50.0529 26.4977 49.7549 26.8267 49.277 26.8267Z" fill="#0B2548"/>
<path d="M50.9607 24.6792L52.32 27.4784L53.0524 25.8088L53.7848 27.4784L55.1441 24.6792H54.4613L53.7848 26.175L53.0524 24.4557L52.32 26.175L51.6435 24.6792H50.9607Z" fill="#0B2548"/>
<path d="M56.652 23.1523L58.4147 27.5591L59.5071 24.6233L60.587 27.5591L62.4366 23.1523H61.7539L60.6243 25.9205L59.5443 22.9537L58.4271 25.9205L57.3347 23.1523H56.652Z" fill="#0B2548"/>
<path d="M62.8489 24.6792V27.2922H63.4572V24.6792H62.8489ZM62.762 23.5992C62.762 23.8226 62.9296 23.9902 63.1531 23.9902C63.3765 23.9902 63.5441 23.8226 63.5441 23.5992C63.5441 23.3758 63.3765 23.2082 63.1531 23.2082C62.9296 23.2082 62.762 23.3758 62.762 23.5992Z" fill="#0B2548"/>
<path d="M65.3172 25.2378V24.6792H64.8517V23.7233H64.2435V24.6792H63.989V25.2378H64.2435V27.2922H64.8517V25.2378H65.3172Z" fill="#0B2548"/>
<path d="M65.728 27.2922H66.3363V26.0322C66.3363 25.6971 66.3735 25.4984 66.4604 25.3743C66.5411 25.2564 66.7025 25.1571 66.9073 25.1571C67.0625 25.1571 67.1804 25.2191 67.2487 25.2936C67.3666 25.424 67.3666 25.5915 67.3666 25.7467V27.2922H67.9749V25.6909C67.9749 25.5047 67.9687 25.2005 67.8073 24.9647C67.7328 24.8592 67.5156 24.6109 67.0377 24.6109C66.8825 24.6109 66.597 24.6357 66.3363 24.9026V22.7675H65.728V27.2922Z" fill="#0B2548"/>
<path d="M70.3069 23.1523V25.815C70.3069 26.1439 70.3752 26.5412 70.6917 26.8888C70.9089 27.1246 71.2751 27.3729 71.84 27.3729C72.4048 27.3729 72.771 27.1246 72.9882 26.8888C73.3047 26.5412 73.373 26.1439 73.373 25.815V23.1523H72.7399V25.6474C72.7399 25.8709 72.7337 26.1439 72.6096 26.3612C72.4855 26.5722 72.2062 26.7894 71.84 26.7894C71.4738 26.7894 71.1945 26.5722 71.0703 26.3612C70.9462 26.1439 70.94 25.8709 70.94 25.6474V23.1523H70.3069Z" fill="#0B2548"/>
<path d="M75.8513 25.0702C75.7582 24.9026 75.6403 24.8033 75.5534 24.7474C75.4045 24.6481 75.2555 24.6109 75.0693 24.6109C74.7465 24.6109 74.5479 24.735 74.43 24.8592C74.2935 25.0019 74.2128 25.2067 74.2128 25.4178C74.2128 25.5853 74.2624 25.7281 74.399 25.8584C74.4983 25.9577 74.641 26.026 74.759 26.0819L74.9824 26.1874C75.0817 26.2308 75.1686 26.2743 75.2431 26.3488C75.2989 26.4108 75.3238 26.4729 75.3238 26.5474C75.3238 26.6219 75.2865 26.7026 75.2369 26.7522C75.181 26.8081 75.0817 26.8391 74.9886 26.8391C74.8458 26.8391 74.759 26.777 74.7217 26.7398C74.6659 26.6901 74.61 26.5784 74.579 26.4915L74.0824 26.7274C74.1445 26.9136 74.2686 27.0936 74.4176 27.2053C74.6038 27.3481 74.8148 27.3729 74.9824 27.3729C75.2555 27.3729 75.51 27.3046 75.7148 27.0812C75.8575 26.926 75.9444 26.7212 75.9444 26.4853C75.9444 26.3053 75.8948 26.1439 75.752 26.0012C75.6527 25.8957 75.5224 25.8274 75.3858 25.7591L75.0755 25.604C74.9452 25.5357 74.9079 25.5233 74.8707 25.4984C74.8148 25.4612 74.7838 25.4178 74.7838 25.3495C74.7838 25.2936 74.8086 25.244 74.8396 25.2129C74.8769 25.1757 74.9389 25.1447 75.0258 25.1447C75.2183 25.1447 75.3362 25.2688 75.3982 25.3681L75.8513 25.0702Z" fill="#0B2548"/>
<path d="M76.1701 28.0929L76.5797 28.2604L77.3493 26.7274L76.8031 26.5164L76.1701 28.0929Z" fill="#0B2548"/>
<path d="M82.3377 23.773C82.2509 23.5992 82.1329 23.4564 82.0212 23.3571C81.8909 23.2454 81.6364 23.0778 81.1895 23.0778C80.4137 23.0778 79.9792 23.6116 79.9792 24.1702C79.9792 24.7909 80.4819 25.0764 80.8233 25.2191L81.2205 25.3867C81.4936 25.4984 81.8164 25.6722 81.8164 26.0943C81.8164 26.5101 81.5185 26.7894 81.1336 26.7894C80.8854 26.7894 80.7116 26.6901 80.5937 26.5412C80.4944 26.4108 80.4199 26.2184 80.4199 26.0136L79.793 26.1502C79.8178 26.4357 79.9171 26.7088 80.1406 26.957C80.3516 27.1929 80.6371 27.3729 81.115 27.3729C81.8909 27.3729 82.4495 26.8329 82.4495 26.0446C82.4495 25.5729 82.2384 25.1385 81.475 24.8281L81.0592 24.6605C80.6557 24.4992 80.6123 24.2819 80.6123 24.1578C80.6123 23.8909 80.8109 23.6613 81.1957 23.6613C81.3757 23.6613 81.5123 23.7047 81.6426 23.8102C81.7357 23.8909 81.7916 23.9778 81.8288 24.0709L82.3377 23.773Z" fill="#0B2548"/>
<path d="M83.1299 24.6792V27.2922H83.7381V24.6792H83.1299ZM83.043 23.5992C83.043 23.8226 83.2106 23.9902 83.434 23.9902C83.6574 23.9902 83.825 23.8226 83.825 23.5992C83.825 23.3758 83.6574 23.2082 83.434 23.2082C83.2106 23.2082 83.043 23.3758 83.043 23.5992Z" fill="#0B2548"/>
<path d="M85.5982 25.2378V24.6792H85.1327V23.7233H84.5244V24.6792H84.2699V25.2378H84.5244V27.2922H85.1327V25.2378H85.5982Z" fill="#0B2548"/>
<path d="M87.3372 25.2378V24.6792H86.6793V23.6923C86.6793 23.5061 86.7476 23.413 86.7786 23.382C86.8593 23.2951 86.971 23.2827 87.0455 23.2827C87.1324 23.2827 87.2131 23.3013 87.3372 23.3758V22.7737C87.2069 22.7178 87.0765 22.6992 86.9462 22.6992C86.6296 22.6992 86.4372 22.8358 86.3255 22.9537C86.1766 23.1151 86.071 23.3695 86.071 23.773V24.6792H85.8104V25.2378H86.071V27.2922H86.6793V25.2378H87.3372Z" fill="#0B2548"/>
<path d="M87.6819 24.6792V26.1936C87.6819 26.5288 87.7191 26.8081 87.9612 27.0501C88.197 27.2922 88.5198 27.3729 88.7867 27.3729C89.0784 27.3729 89.4011 27.286 89.637 27.0501C89.8791 26.8081 89.9163 26.5288 89.9163 26.1936V24.6792H89.308V26.175C89.308 26.3301 89.3018 26.5101 89.1963 26.6467C89.1156 26.7522 88.9729 26.8267 88.7991 26.8267C88.6253 26.8267 88.4825 26.7522 88.4019 26.6467C88.2963 26.5101 88.2901 26.3301 88.2901 26.175V24.6792H87.6819Z" fill="#0B2548"/>
<path d="M91.7806 25.2378V24.6792H91.3151V23.7233H90.7069V24.6792H90.4524V25.2378H90.7069V27.2922H91.3151V25.2378H91.7806Z" fill="#0B2548"/>
<path d="M93.5197 25.2378V24.6792H92.8618V23.6923C92.8618 23.5061 92.93 23.413 92.9611 23.382C93.0418 23.2951 93.1535 23.2827 93.228 23.2827C93.3149 23.2827 93.3955 23.3013 93.5197 23.3758V22.7737C93.3893 22.7178 93.259 22.6992 93.1287 22.6992C92.8121 22.6992 92.6197 22.8358 92.508 22.9537C92.359 23.1151 92.2535 23.3695 92.2535 23.773V24.6792H91.9928V25.2378H92.2535V27.2922H92.8618V25.2378H93.5197Z" fill="#0B2548"/>
<path d="M93.8643 24.6792V26.1936C93.8643 26.5288 93.9016 26.8081 94.1436 27.0501C94.3795 27.2922 94.7023 27.3729 94.9691 27.3729C95.2609 27.3729 95.5836 27.286 95.8195 27.0501C96.0615 26.8081 96.0988 26.5288 96.0988 26.1936V24.6792H95.4905V26.175C95.4905 26.3301 95.4843 26.5101 95.3788 26.6467C95.2981 26.7522 95.1553 26.8267 94.9816 26.8267C94.8078 26.8267 94.665 26.7522 94.5843 26.6467C94.4788 26.5101 94.4726 26.3301 94.4726 26.175V24.6792H93.8643Z" fill="#0B2548"/>
<path d="M96.8707 22.7675V27.2922H97.479V26.2867L97.5907 26.175L98.4472 27.2922H99.2169L98.0128 25.7653L99.1362 24.6792H98.3293L97.479 25.5543V22.7675H96.8707Z" fill="#0B2548"/>
<path d="M101.381 26.4108C101.325 26.5101 101.244 26.6157 101.139 26.6963C101.015 26.7894 100.89 26.8267 100.723 26.8267C100.574 26.8267 100.4 26.8019 100.257 26.6591C100.127 26.5288 100.046 26.3177 100.034 26.1315H101.908V26.0571C101.908 25.784 101.877 25.2998 101.542 24.9523C101.387 24.7909 101.12 24.6109 100.704 24.6109C100.332 24.6109 100.046 24.7474 99.8291 24.9647C99.556 25.244 99.4132 25.635 99.4132 26.0384C99.4132 26.4295 99.5498 26.7894 99.7981 27.0377C100.046 27.286 100.332 27.3729 100.679 27.3729C100.959 27.3729 101.238 27.3108 101.449 27.1743C101.617 27.0687 101.778 26.895 101.89 26.6963L101.381 26.4108ZM100.077 25.635C100.108 25.5047 100.177 25.3805 100.264 25.2998C100.344 25.2191 100.481 25.1323 100.692 25.1323C100.89 25.1323 101.021 25.2067 101.101 25.2812C101.195 25.3681 101.263 25.4922 101.288 25.635H100.077Z" fill="#0B2548"/>
<path d="M104.737 27.2922V24.3999L107.742 27.5467V23.1523H107.108V26.0198L104.104 22.873V27.2922H104.737Z" fill="#0B2548"/>
<path d="M110.535 24.9833C110.287 24.6605 109.952 24.6109 109.759 24.6109C109.07 24.6109 108.487 25.1323 108.487 25.9826C108.487 26.7026 108.946 27.3729 109.753 27.3729C109.939 27.3729 110.268 27.3294 110.535 27.0191V27.2922H111.143V24.6792H110.535V24.9833ZM109.834 25.1571C110.219 25.1571 110.572 25.4302 110.572 26.0012C110.572 26.5474 110.219 26.8267 109.834 26.8267C109.393 26.8267 109.108 26.4481 109.108 25.995C109.108 25.5295 109.393 25.1571 109.834 25.1571Z" fill="#0B2548"/>
<path d="M111.567 24.6792L112.926 27.4784L113.659 25.8088L114.391 27.4784L115.75 24.6792H115.068L114.391 26.175L113.659 24.4557L112.926 26.175L112.25 24.6792H111.567Z" fill="#0B2548"/>
<path d="M117.934 26.4108C117.878 26.5101 117.798 26.6157 117.692 26.6963C117.568 26.7894 117.444 26.8267 117.276 26.8267C117.127 26.8267 116.953 26.8019 116.811 26.6591C116.68 26.5288 116.6 26.3177 116.587 26.1315H118.462V26.0571C118.462 25.784 118.431 25.2998 118.095 24.9523C117.94 24.7909 117.673 24.6109 117.258 24.6109C116.885 24.6109 116.6 24.7474 116.382 24.9647C116.109 25.244 115.967 25.635 115.967 26.0384C115.967 26.4295 116.103 26.7894 116.351 27.0377C116.6 27.286 116.885 27.3729 117.233 27.3729C117.512 27.3729 117.791 27.3108 118.002 27.1743C118.17 27.0687 118.331 26.895 118.443 26.6963L117.934 26.4108ZM116.631 25.635C116.662 25.5047 116.73 25.3805 116.817 25.2998C116.898 25.2191 117.034 25.1323 117.245 25.1323C117.444 25.1323 117.574 25.2067 117.655 25.2812C117.748 25.3681 117.816 25.4922 117.841 25.635H116.631Z" fill="#0B2548"/>
<path d="M8.87217 26.2208C13.7721 26.2208 17.7443 20.351 17.7443 13.1104C17.7443 5.86971 13.7721 0 8.87217 0C3.97221 0 0 5.86971 0 13.1104C0 20.351 3.97221 26.2208 8.87217 26.2208Z" fill="#0B2548"/>
<path fill-rule="evenodd" clip-rule="evenodd" d="M4.42969 15.7111H7.97797V16.4502H4.42969V15.7111ZM9.76235 20.9946H13.3106V21.7337H9.76235V20.9946ZM9.76235 19.6737H13.3106V20.4128H9.76235V19.6737ZM9.76235 18.3528H13.3106V19.0917H9.76235V18.3528ZM9.76235 17.0319H13.3106V17.7709H9.76235V17.0319ZM9.76235 15.7109H13.3106V16.45H9.76235V15.7109ZM4.42969 20.9945H7.97797V21.7335H4.42969V20.9945ZM4.42969 19.6735H7.97797V20.4126H4.42969V19.6735ZM4.42969 18.3526H7.97797V19.0915H4.42969V18.3526ZM4.42969 17.0317H7.97797V17.7707H4.42969V17.0317Z" fill="white"/>
<path fill-rule="evenodd" clip-rule="evenodd" d="M4.42969 4.46484H7.97797V5.20391H4.42969V4.46484ZM9.76235 9.74836H13.3106V10.4874H9.76235V9.74836ZM9.76235 8.42743H13.3106V9.1665H9.76235V8.42743ZM9.76235 7.1067H13.3106V7.84557H9.76235V7.1067ZM9.76235 5.78577H13.3106V6.52484H9.76235V5.78577ZM9.76235 4.46484H13.3106V5.20391H9.76235V4.46484ZM4.42969 9.74836H7.97797V10.4874H4.42969V9.74836ZM4.42969 8.42743H7.97797V9.1665H4.42969V8.42743ZM4.42969 7.1067H7.97797V7.84557H4.42969V7.1067ZM4.42969 5.78577H7.97797V6.52484H4.42969V5.78577Z" fill="white"/>
<path fill-rule="evenodd" clip-rule="evenodd" d="M120.449 28.8008H124.842V43.0005C123.526 41.2878 122.054 39.7062 120.449 38.2772V28.801V28.8008Z" fill="#FAEC4D"/>
</svg>
