<svg width="35" height="34" viewBox="0 0 35 34" fill="none" xmlns="http://www.w3.org/2000/svg">
<path d="M15.9241 31.4132H18.7837H26.5031C29.6642 31.4132 32.2449 28.8324 32.2449 25.6714V23.8542H29.3435C27.6942 23.8542 26.1824 22.6478 26.045 20.9985C25.9534 20.0365 26.3199 19.1355 26.9612 18.5094C27.5263 17.9291 28.3051 17.5931 29.1602 17.5931H32.2449V15.3942C32.2449 12.2331 29.6642 9.65234 26.5031 9.65234H8.97226C5.81121 9.65234 3.23047 12.2331 3.23047 15.3942V17.7308" stroke="#F57921" stroke-width="1.88235" stroke-linecap="round" stroke-linejoin="round"/>
<path opacity="0.4" d="M3.23047 16.7686V9.78997C3.23047 7.97275 4.34523 6.35398 6.04029 5.71261L18.1653 1.13138C20.0588 0.413658 22.0899 1.81861 22.0899 3.84963V9.65248" stroke="#F57921" stroke-width="1.88235" stroke-linecap="round" stroke-linejoin="round"/>
<path d="M33.8638 19.1514V22.2971C33.8638 23.137 33.1919 23.8242 32.3367 23.8548H29.3437C27.6944 23.8548 26.1826 22.6484 26.0452 20.9991C25.9536 20.0371 26.3201 19.1361 26.9614 18.51C27.5264 17.9297 28.3053 17.5938 29.1604 17.5938H32.3367C33.1919 17.6243 33.8638 18.3115 33.8638 19.1514Z" stroke="#F57921" stroke-width="1.88235" stroke-linecap="round" stroke-linejoin="round"/>
<path opacity="0.4" d="M10.1055 16.1426H20.795" stroke="#F57921" stroke-width="1.88235" stroke-linecap="round" stroke-linejoin="round"/>
<path d="M13.158 26.8329C13.158 27.9782 12.8373 29.0624 12.2723 29.9787C11.9516 30.5284 11.5393 31.0171 11.0659 31.4141C9.99697 32.3762 8.59206 32.9412 7.04971 32.9412C4.82018 32.9412 2.88079 31.7501 1.82711 29.9787C1.26209 29.0624 0.941406 27.9782 0.941406 26.8329C0.941406 24.9088 1.82711 23.1832 3.23202 22.0684C4.2857 21.2285 5.61426 20.7246 7.04971 20.7246C10.4246 20.7246 13.158 23.4581 13.158 26.8329Z" stroke="white" stroke-width="1.88235" stroke-miterlimit="10" stroke-linecap="round" stroke-linejoin="round"/>
<path d="M4.66797 26.8305L6.17976 28.3423L9.43245 25.334" stroke="white" stroke-width="1.88235" stroke-linecap="round" stroke-linejoin="round"/>
</svg>
