<svg width="23" height="23" viewBox="0 0 23 23" fill="none" xmlns="http://www.w3.org/2000/svg">
<path d="M11.289 21.7871C17.088 21.7871 21.789 17.086 21.789 11.2871C21.789 5.4881 17.088 0.787109 11.289 0.787109C5.49006 0.787109 0.789062 5.4881 0.789062 11.2871C0.789062 17.086 5.49006 21.7871 11.289 21.7871Z" stroke="white" stroke-width="1.575" stroke-linecap="round" stroke-linejoin="round"/>
<g opacity="0.4">
<path d="M8.06641 13.4289C8.06641 14.6144 8.98307 15.5677 10.1075 15.5677H12.4053C13.3831 15.5677 14.1775 14.7366 14.1775 13.6977C14.1775 12.5855 13.6886 12.1822 12.9675 11.9255L9.28863 10.6422C8.56752 10.3855 8.07864 9.99441 8.07864 8.86996C8.07864 7.84333 8.87307 7 9.85085 7H12.1486C13.2731 7 14.1897 7.95333 14.1897 9.13885" stroke="white" stroke-width="1.375" stroke-linecap="round" stroke-linejoin="round"/>
<path d="M11.1172 5.78711V16.7871" stroke="white" stroke-width="1.375" stroke-linecap="round" stroke-linejoin="round"/>
</g>
</svg>
