<svg width="33" height="34" viewBox="0 0 33 34" fill="none" xmlns="http://www.w3.org/2000/svg">
<path d="M12.0086 15.3279C11.8471 15.3118 11.6532 15.3118 11.4756 15.3279C7.63108 15.1987 4.57812 12.0488 4.57812 8.17203C4.57812 4.21449 7.77646 1 11.7502 1C15.7076 1 18.9221 4.21449 18.9221 8.17203C18.906 12.0488 15.853 15.1987 12.0086 15.3279Z" stroke="#F57921" stroke-width="2" stroke-linecap="round" stroke-linejoin="round"/>
<path d="M23.7139 4.23047C26.8476 4.23047 29.3675 6.76652 29.3675 9.8841C29.3675 12.9371 26.9445 15.4247 23.9239 15.5377C23.7947 15.5216 23.6493 15.5216 23.5039 15.5377" stroke="white" stroke-width="2" stroke-linecap="round" stroke-linejoin="round"/>
<path opacity="0.6" d="M3.93181 21.2893C0.02273 23.9061 0.02273 28.1706 3.93181 30.7712C8.37395 33.7434 15.6591 33.7434 20.1012 30.7712C24.0103 28.1544 24.0103 23.89 20.1012 21.2893C15.6752 18.3333 8.3901 18.3333 3.93181 21.2893Z" stroke="#F57921" stroke-width="2" stroke-linecap="round" stroke-linejoin="round"/>
<path d="M26.832 30.0767C27.9951 29.8344 29.0935 29.366 29.9981 28.6714C32.518 26.7814 32.518 23.6639 29.9981 21.7739C29.1096 21.0955 28.0274 20.6432 26.8805 20.3848" stroke="white" stroke-width="2" stroke-linecap="round" stroke-linejoin="round"/>
</svg>
