<svg width="23" height="23" viewBox="0 0 23 23" fill="none" xmlns="http://www.w3.org/2000/svg">
<path opacity="0.4" d="M11.4176 12.106C11.3441 12.0955 11.2496 12.0955 11.1656 12.106C9.31765 12.043 7.84766 10.531 7.84766 8.67251C7.84766 6.77201 9.38065 5.22852 11.2916 5.22852C13.1921 5.22852 14.7356 6.77201 14.7356 8.67251C14.7251 10.531 13.2656 12.043 11.4176 12.106Z" stroke="white" stroke-width="1.575" stroke-linecap="round" stroke-linejoin="round"/>
<path opacity="0.34" d="M18.3688 19.0348C16.4998 20.7463 14.0218 21.7858 11.2919 21.7858C8.56183 21.7858 6.08384 20.7463 4.21484 19.0348C4.31984 18.0478 4.94984 17.0818 6.07334 16.3258C8.95033 14.4148 13.6544 14.4148 16.5103 16.3258C17.6338 17.0818 18.2638 18.0478 18.3688 19.0348Z" stroke="white" stroke-width="1.575" stroke-linecap="round" stroke-linejoin="round"/>
<path d="M11.289 21.7871C17.088 21.7871 21.789 17.086 21.789 11.2871C21.789 5.4881 17.088 0.787109 11.289 0.787109C5.49006 0.787109 0.789062 5.4881 0.789062 11.2871C0.789062 17.086 5.49006 21.7871 11.289 21.7871Z" stroke="white" stroke-width="1.575" stroke-linecap="round" stroke-linejoin="round"/>
</svg>
