<svg width="23" height="23" viewBox="0 0 23 23" fill="none" xmlns="http://www.w3.org/2000/svg">
<path d="M16.4551 21.7871C13.5151 21.7871 11.1211 19.4036 11.1211 16.4531C11.1211 13.5131 13.5046 11.1191 16.4551 11.1191C19.3951 11.1191 21.7891 13.5026 21.7891 16.4531C21.7891 19.4036 19.4056 21.7871 16.4551 21.7871Z" stroke="white" stroke-width="1.575" stroke-linecap="round" stroke-linejoin="round"/>
<path d="M3.96006 0.787109H8.07605C10.2495 0.787109 11.2995 1.83713 11.247 3.95813V8.0741C11.2995 10.2476 10.2495 11.2976 8.07605 11.2451H3.96006C1.83906 11.2871 0.789062 10.2371 0.789062 8.06359V3.94762C0.789062 1.83712 1.83906 0.787109 3.96006 0.787109Z" stroke="white" stroke-width="1.575" stroke-linecap="round" stroke-linejoin="round"/>
<path opacity="0.4" d="M0.789062 14.4375C0.789062 18.501 4.07556 21.7875 8.13905 21.7875L7.03655 19.95" stroke="white" stroke-width="1.575" stroke-linecap="round" stroke-linejoin="round"/>
<path opacity="0.4" d="M21.7914 8.1371C21.7914 4.0736 18.5049 0.787109 14.4414 0.787109L15.5439 2.62461" stroke="white" stroke-width="1.575" stroke-linecap="round" stroke-linejoin="round"/>
</svg>
