<svg width="226" height="244" viewBox="0 0 226 244" fill="none" xmlns="http://www.w3.org/2000/svg">
<path d="M188.676 106.194V20.3228C188.676 9.56158 180.572 0.806641 170.611 0.806641H18.8692C8.90843 0.806641 0.804688 9.56158 0.804688 20.3228V133.516C0.804688 144.278 8.90843 153.032 18.8692 153.032H54.9982V168.645H47.7724V176.452H54.5322C51.472 179.82 48.9755 183.782 47.198 188.161H0.804688V211.581H15.2563V219.387H0.804688V242.807H65.8369V239.524C70.2664 241.624 75.151 242.807 80.2886 242.807C100.21 242.807 116.418 225.297 116.418 203.774C116.418 193.142 112.451 183.497 106.045 176.452H127.256V242.807H224.805V106.194H188.676ZM15.2563 235H8.03049V227.194H15.2563V235ZM15.2563 203.774H8.03049V195.968H15.2563V203.774ZM29.7079 235H22.4821V227.194H29.7079V235ZM29.7079 219.387H22.4821V211.581H29.7079V219.387ZM29.7079 203.774H22.4821V195.968H29.7079V203.774ZM44.1595 235H36.9337V227.194H44.1595V235ZM44.1595 219.387H36.9337V211.581H44.1595V219.387ZM44.1595 203.774H36.9337V195.968H44.1595V203.774ZM58.6111 235H51.3853V227.194V227.092C53.4411 230.059 55.8726 232.693 58.6111 234.926V235ZM109.192 203.774C109.192 220.992 96.2251 235 80.2886 235C64.352 235 51.3853 220.992 51.3853 203.774C51.3853 186.557 64.352 172.549 80.2886 172.549C96.2251 172.549 109.192 186.557 109.192 203.774ZM127.256 168.645H95.9324C91.1923 166.171 85.8994 164.742 80.2886 164.742C74.6813 164.742 69.3848 166.171 64.6447 168.645H62.224V153.032H127.256V168.645ZM127.256 145.226H18.8692C12.8935 145.226 8.03049 139.972 8.03049 133.516V129.613H127.256V145.226ZM127.256 121.807H8.03049V20.3228C8.03049 13.8668 12.8935 8.61309 18.8692 8.61309H170.611C176.587 8.61309 181.45 13.8668 181.45 20.3228V106.194H127.256V121.807ZM217.579 235H134.482V145.226H217.579V235ZM217.579 137.42H134.482V114H217.579V137.42Z" fill="white" stroke="white" stroke-width="1.6129"/>
<path d="M159.772 153.032H141.707V172.548H159.772V153.032ZM152.546 164.742H148.933V160.839H152.546V164.742Z" fill="#F57921" stroke="white" stroke-width="1.6129"/>
<path d="M185.065 153.032H167V172.548H185.065V153.032ZM177.839 164.742H174.226V160.839H177.839V164.742Z" fill="#F57921" stroke="white" stroke-width="1.6129"/>
<path d="M210.354 153.032H192.289V172.548H210.354V153.032ZM203.128 164.742H199.515V160.839H203.128V164.742Z" fill="#F57921" stroke="white" stroke-width="1.6129"/>
<path d="M159.772 180.355H141.707V199.872H159.772V180.355ZM152.546 192.065H148.933V188.162H152.546V192.065Z" fill="#F57921" stroke="white" stroke-width="1.6129"/>
<path d="M185.065 180.355H167V199.872H185.065V180.355ZM177.839 192.065H174.226V188.162H177.839V192.065Z" fill="#F57921" stroke="white" stroke-width="1.6129"/>
<path d="M210.354 180.355H192.289V199.872H210.354V180.355ZM203.128 192.065H199.515V188.162H203.128V192.065Z" fill="#F57921" stroke="white" stroke-width="1.6129"/>
<path d="M159.772 207.678H141.707V227.194H159.772V207.678ZM152.546 219.387H148.933V215.484H152.546V219.387Z" fill="#F57921" stroke="white" stroke-width="1.6129"/>
<path d="M185.065 207.678H167V227.194H185.065V207.678ZM177.839 219.387H174.226V215.484H177.839V219.387Z" fill="#F57921" stroke="white" stroke-width="1.6129"/>
<path d="M210.354 207.678H192.289V227.194H210.354V207.678ZM203.128 219.387H199.515V215.484H203.128V219.387Z" fill="#F57921" stroke="white" stroke-width="1.6129"/>
<path d="M76.6746 192.065H83.9005C85.8948 192.065 87.5134 193.814 87.5134 195.968H94.7392C94.7392 189.512 89.8762 184.259 83.9005 184.259V176.452H76.6746V184.259C70.6989 184.259 65.8359 189.512 65.8359 195.968C65.8359 202.424 70.6989 207.678 76.6746 207.678H83.9005C85.8948 207.678 87.5134 209.427 87.5134 211.581C87.5134 213.736 85.8948 215.484 83.9005 215.484H76.6746C74.6803 215.484 73.0617 213.736 73.0617 211.581H65.8359C65.8359 218.037 70.6989 223.291 76.6746 223.291V231.097H83.9005V223.291C89.8762 223.291 94.7392 218.037 94.7392 211.581C94.7392 205.125 89.8762 199.872 83.9005 199.872H76.6746C74.6803 199.872 73.0617 198.123 73.0617 195.968C73.0617 193.814 74.6803 192.065 76.6746 192.065Z" fill="#F57921" stroke="white" stroke-width="1.6129"/>
<path d="M83.9023 98.3873H105.58V43.7422H83.9023V98.3873ZM91.1282 51.5486H98.354V90.5809H91.1282V51.5486Z" fill="#F57921" stroke="white" stroke-width="1.6129"/>
<path d="M55 98.3877H76.6774V59.3555H55V98.3877ZM62.2258 67.1619H69.4516V90.5813H62.2258V67.1619Z" fill="#F57921" stroke="white" stroke-width="1.6129"/>
<path d="M26.0938 98.3871H47.7712V74.9678H26.0938V98.3871ZM33.3196 82.7742H40.5454V90.5807H33.3196V82.7742Z" fill="#F57921" stroke="white" stroke-width="1.6129"/>
<path d="M112.805 98.3875H134.482V51.5488H112.805V98.3875ZM120.03 59.3553H127.256V90.5811H120.03V59.3553Z" fill="#F57921" stroke="white" stroke-width="1.6129"/>
<path d="M141.707 98.3877H163.384V16.4199H141.707V98.3877ZM148.933 24.2264H156.159V90.5812H148.933V24.2264Z" fill="#F57921" stroke="white" stroke-width="1.6129"/>
</svg>
