<svg width="24" height="23" viewBox="0 0 24 23" fill="none" xmlns="http://www.w3.org/2000/svg">
<path opacity="0.34" d="M11.9623 14.6745C13.8054 14.6745 15.2995 13.1804 15.2995 11.3373C15.2995 9.49409 13.8054 8 11.9623 8C10.1191 8 8.625 9.49409 8.625 11.3373C8.625 13.1804 10.1191 14.6745 11.9623 14.6745Z" stroke="white" stroke-width="1.66863" stroke-miterlimit="10" stroke-linecap="round" stroke-linejoin="round"/>
<path d="M0.835938 12.3148V10.357C0.835938 9.20007 1.78149 8.24343 2.94954 8.24343C4.96302 8.24343 5.78621 6.81953 4.7739 5.07304C4.19545 4.07186 4.5403 2.77033 5.5526 2.19187L7.47708 1.09057C8.3559 0.567735 9.49056 0.879212 10.0134 1.75802L10.1358 1.96938C11.1369 3.71588 12.7833 3.71588 13.7956 1.96938L13.918 1.75802C14.4408 0.879212 15.5755 0.567735 16.4543 1.09057L18.3788 2.19187C19.3911 2.77033 19.736 4.07186 19.1575 5.07304C18.1452 6.81953 18.9684 8.24343 20.9819 8.24343C22.1388 8.24343 23.0955 9.18894 23.0955 10.357V12.3148C23.0955 13.4718 22.1499 14.4284 20.9819 14.4284C18.9684 14.4284 18.1452 15.8523 19.1575 17.5988C19.736 18.6111 19.3911 19.9015 18.3788 20.48L16.4543 21.5813C15.5755 22.1041 14.4408 21.7927 13.918 20.9139L13.7956 20.7025C12.7945 18.956 11.1481 18.956 10.1358 20.7025L10.0134 20.9139C9.49056 21.7927 8.3559 22.1041 7.47708 21.5813L5.5526 20.48C4.5403 19.9015 4.19545 18.6 4.7739 17.5988C5.78621 15.8523 4.96302 14.4284 2.94954 14.4284C1.78149 14.4284 0.835938 13.4718 0.835938 12.3148Z" stroke="white" stroke-width="1.66863" stroke-miterlimit="10" stroke-linecap="round" stroke-linejoin="round"/>
</svg>
