<svg width="52" height="51" viewBox="0 0 52 51" fill="none" xmlns="http://www.w3.org/2000/svg">
<path d="M22.2288 46.9652H28.0186H39.5983C44.3401 46.9652 48.2115 43.0939 48.2115 38.3521V35.6261H43.8591C41.3851 35.6261 39.1172 33.8164 38.9111 31.3424C38.7736 29.8993 39.3234 28.5477 40.2855 27.6085C41.1331 26.738 42.3014 26.2341 43.5842 26.2341H48.2115V22.9354C48.2115 18.1936 44.3401 14.3223 39.5983 14.3223H13.3006C8.55882 14.3223 4.6875 18.1936 4.6875 22.9354V27.9407" stroke="#F57921" stroke-width="2.5" stroke-linecap="round" stroke-linejoin="round"/>
<path opacity="0.4" d="M4.6875 24.994V14.5255C4.6875 11.7995 6.35974 9.37125 8.90245 8.40914L27.0909 1.53693C29.9314 0.460289 32.9781 2.56783 32.9781 5.61451V14.3193" stroke="#F57921" stroke-width="2.5" stroke-linecap="round" stroke-linejoin="round"/>
<path d="M50.6635 28.569V33.2879C50.6635 34.5478 49.6556 35.5786 48.3728 35.6244H43.8829C41.409 35.6244 39.1411 33.8148 38.935 31.3408C38.7975 29.8976 39.3473 28.5461 40.3094 27.6069C41.157 26.7364 42.3253 26.2324 43.6081 26.2324H48.3728C49.6556 26.2782 50.6635 27.3091 50.6635 28.569Z" stroke="#F57921" stroke-width="2.5" stroke-linecap="round" stroke-linejoin="round"/>
<path opacity="0.4" d="M15.0117 24.0547H31.0469" stroke="#F57921" stroke-width="2.5" stroke-linecap="round" stroke-linejoin="round"/>
<path d="M19.5759 40.0887C19.5759 41.8068 19.0948 43.4332 18.2473 44.8076C17.7662 45.6323 17.1477 46.3653 16.4376 46.9609C14.8341 48.4041 12.7266 49.2517 10.4129 49.2517C7.06847 49.2517 4.15923 47.4649 2.57863 44.8076C1.73105 43.4332 1.25 41.8068 1.25 40.0887C1.25 37.2024 2.57863 34.6139 4.6861 32.9416C6.26671 31.6817 8.25965 30.9258 10.4129 30.9258C15.4755 30.9258 19.5759 35.0262 19.5759 40.0887Z" stroke="white" stroke-width="2.5" stroke-miterlimit="10" stroke-linecap="round" stroke-linejoin="round"/>
<path d="M6.83984 40.0926L9.10765 42.3604L13.9869 37.8477" stroke="white" stroke-width="2.5" stroke-linecap="round" stroke-linejoin="round"/>
</svg>
