<svg width="51" height="51" viewBox="0 0 51 51" fill="none" xmlns="http://www.w3.org/2000/svg">
<path opacity="0.6" d="M25.25 13.1953C25.9404 13.1953 26.5 13.755 26.5 14.4453V15.5762H27.2578C30.2079 15.5762 32.5166 18.061 32.5166 21.0264C32.5165 21.7165 31.9567 22.2761 31.2666 22.2764C30.5763 22.2764 30.0167 21.7166 30.0166 21.0264C30.0166 19.3359 28.7237 18.0762 27.2578 18.0762H26.5V24.3477L29.2783 25.3174L29.2852 25.3203C30.0888 25.6064 30.9416 26.0337 31.5703 26.8389C32.2101 27.6582 32.4922 28.7043 32.4922 29.9785C32.492 32.6478 30.4313 34.9004 27.7617 34.9004H26.5V36.0449C26.5 36.7353 25.9404 37.2949 25.25 37.2949C24.5596 37.2949 24 36.7353 24 36.0449V34.9004H23.25C20.3 34.9003 17.9922 32.4155 17.9922 29.4502C17.9922 28.7598 18.5518 28.2002 19.2422 28.2002C19.9325 28.2002 20.4922 28.7598 20.4922 29.4502C20.4922 31.1407 21.7842 32.4003 23.25 32.4004H24V26.124L21.2305 25.1582L21.2227 25.1553C20.4271 24.8721 19.5716 24.453 18.9404 23.6494C18.2971 22.8302 18.0166 21.7811 18.0166 20.498C18.0166 17.8582 20.0713 15.5762 22.7461 15.5762H24V14.4453C24 13.755 24.5596 13.1953 25.25 13.1953ZM26.5 32.4004H27.7617C28.9319 32.4004 29.992 31.3888 29.9922 29.9785C29.9922 29.0687 29.7938 28.6256 29.5996 28.377C29.3951 28.1153 29.0617 27.8947 28.4541 27.6777L26.5 26.9961V32.4004ZM22.7461 18.0762C21.581 18.0762 20.5166 19.1062 20.5166 20.498C20.5166 21.423 20.7156 21.8627 20.9062 22.1055C21.1081 22.3624 21.4386 22.5781 22.0537 22.7979L24 23.4766V18.0762H22.7461Z" fill="#FF7700"/>
<path d="M49.25 25.25C49.25 38.498 38.498 49.25 25.25 49.25C12.002 49.25 1.25 38.498 1.25 25.25C1.25 12.002 12.002 1.25 25.25 1.25" stroke="#FF7700" stroke-width="2.5" stroke-linecap="round" stroke-linejoin="round"/>
<path d="M49.2484 10.85V1.25H39.6484" stroke="white" stroke-width="2.5" stroke-linecap="round" stroke-linejoin="round"/>
<path d="M37.25 13.25L49.25 1.25" stroke="white" stroke-width="2.5" stroke-linecap="round" stroke-linejoin="round"/>
</svg>
